<svg width="1440" height="606" viewBox="0 0 1440 606" fill="none" xmlns="http://www.w3.org/2000/svg">
<g clip-path="url(#clip0_85_663)">
<path d="M-14.5 540.5L154.5 441.5L270.5 453.5L349.5 375.5L474.5 369L598.5 297.5H654M1323 41L1127.5 233.5L955.5 216.5L945 225.5" stroke="#4339B8" stroke-width="5"/>
<circle cx="156.5" cy="443.5" r="11.5" fill="#4339B8"/>
<circle cx="269.5" cy="452.5" r="11.5" fill="#4339B8"/>
<circle cx="348.5" cy="376.5" r="11.5" fill="#4339B8"/>
<circle cx="472.5" cy="368.5" r="11.5" fill="#4339B8"/>
<circle cx="597.5" cy="298.5" r="11.5" fill="#4339B8"/>
<circle cx="955.5" cy="218.5" r="11.5" fill="#4339B8"/>
<circle cx="1126.5" cy="230.5" r="11.5" fill="#4339B8"/>
<circle cx="804.5" cy="283.5" r="152.5" fill="url(#paint0_linear_85_663)"/>
<path d="M489.472 300V250.608H525.904V259.392H500.2V271.632H523.168V280.344H500.2V300H489.472ZM541.085 300.864C539.837 300.864 538.493 300.72 537.053 300.432C535.661 300.144 534.341 299.64 533.093 298.92C531.845 298.152 530.813 297.072 529.997 295.68C529.229 294.24 528.845 292.416 528.845 290.208C528.845 287.568 529.421 285.384 530.573 283.656C531.725 281.928 533.357 280.584 535.469 279.624C537.629 278.616 540.197 277.92 543.173 277.536C546.149 277.152 549.437 276.96 553.037 276.96V274.152C553.037 273.048 552.845 272.088 552.461 271.272C552.125 270.456 551.501 269.808 550.589 269.328C549.725 268.848 548.501 268.608 546.917 268.608C545.333 268.608 544.037 268.8 543.029 269.184C542.069 269.568 541.373 270.072 540.941 270.696C540.557 271.272 540.365 271.92 540.365 272.64V273.504H530.645C530.597 273.264 530.573 273.048 530.573 272.856C530.573 272.616 530.573 272.328 530.573 271.992C530.573 269.784 531.245 267.888 532.589 266.304C533.933 264.672 535.829 263.424 538.277 262.56C540.725 261.696 543.581 261.264 546.845 261.264C550.349 261.264 553.277 261.72 555.629 262.632C558.029 263.544 559.853 264.888 561.101 266.664C562.397 268.44 563.045 270.672 563.045 273.36V290.568C563.045 291.432 563.285 292.08 563.765 292.512C564.293 292.896 564.869 293.088 565.493 293.088H567.869V299.64C567.389 299.88 566.645 300.12 565.637 300.36C564.629 300.648 563.405 300.792 561.965 300.792C560.573 300.792 559.325 300.576 558.221 300.144C557.165 299.76 556.277 299.208 555.557 298.488C554.837 297.72 554.333 296.808 554.045 295.752H553.541C552.725 296.76 551.717 297.648 550.517 298.416C549.365 299.184 547.997 299.784 546.413 300.216C544.877 300.648 543.101 300.864 541.085 300.864ZM544.469 293.304C545.813 293.304 547.013 293.112 548.069 292.728C549.125 292.296 550.013 291.744 550.733 291.072C551.453 290.352 552.005 289.488 552.389 288.48C552.821 287.472 553.037 286.392 553.037 285.24V283.152C550.349 283.152 547.949 283.344 545.837 283.728C543.725 284.064 542.045 284.664 540.797 285.528C539.597 286.392 538.997 287.592 538.997 289.128C538.997 289.992 539.213 290.736 539.645 291.36C540.077 291.984 540.701 292.464 541.517 292.8C542.333 293.136 543.317 293.304 544.469 293.304ZM572.842 300V247.872H582.85V277.896L596.098 262.128H607.834L594.874 276.96L608.482 300H597.034L588.322 284.016L582.85 289.344V300H572.842ZM628.652 300.864C624.476 300.864 620.972 300.168 618.14 298.776C615.308 297.336 613.172 295.152 611.732 292.224C610.292 289.296 609.572 285.576 609.572 281.064C609.572 276.504 610.292 272.784 611.732 269.904C613.172 266.976 615.284 264.816 618.068 263.424C620.9 261.984 624.356 261.264 628.436 261.264C632.276 261.264 635.516 261.96 638.156 263.352C640.796 264.696 642.788 266.808 644.132 269.688C645.476 272.52 646.148 276.192 646.148 280.704V283.296H619.724C619.82 285.504 620.156 287.376 620.732 288.912C621.356 290.448 622.292 291.6 623.54 292.368C624.836 293.088 626.54 293.448 628.652 293.448C629.804 293.448 630.836 293.304 631.748 293.016C632.708 292.728 633.524 292.296 634.196 291.72C634.868 291.144 635.396 290.424 635.78 289.56C636.164 288.696 636.356 287.712 636.356 286.608H646.148C646.148 289.008 645.716 291.096 644.852 292.872C643.988 294.648 642.788 296.136 641.252 297.336C639.716 298.488 637.868 299.376 635.708 300C633.596 300.576 631.244 300.864 628.652 300.864ZM619.868 276.96H635.852C635.852 275.52 635.66 274.272 635.276 273.216C634.94 272.16 634.46 271.296 633.836 270.624C633.212 269.952 632.444 269.472 631.532 269.184C630.668 268.848 629.684 268.68 628.58 268.68C626.756 268.68 625.22 268.992 623.972 269.616C622.772 270.192 621.836 271.104 621.164 272.352C620.54 273.552 620.108 275.088 619.868 276.96Z" fill="#F08989"/>
<path d="M668.488 300V250.608H679.216V300H668.488ZM689.28 300V262.128H697.56L698.352 267.312H698.856C699.72 266.064 700.752 264.984 701.952 264.072C703.2 263.16 704.592 262.464 706.128 261.984C707.664 261.504 709.344 261.264 711.168 261.264C713.664 261.264 715.848 261.72 717.72 262.632C719.592 263.544 721.032 264.984 722.04 266.952C723.096 268.92 723.624 271.488 723.624 274.656V300H713.616V276.24C713.616 275.04 713.472 274.032 713.184 273.216C712.896 272.352 712.464 271.656 711.888 271.128C711.36 270.552 710.688 270.144 709.872 269.904C709.056 269.664 708.144 269.544 707.136 269.544C705.648 269.544 704.304 269.904 703.104 270.624C701.904 271.344 700.968 272.328 700.296 273.576C699.624 274.824 699.288 276.264 699.288 277.896V300H689.28ZM742.384 300L728.272 262.128H738.856L744.4 278.112C744.688 278.928 745.024 280.008 745.408 281.352C745.84 282.696 746.272 284.112 746.704 285.6C747.136 287.088 747.496 288.432 747.784 289.632H748.144C748.48 288.528 748.84 287.256 749.224 285.816C749.608 284.328 749.992 282.912 750.376 281.568C750.808 280.176 751.168 279.024 751.456 278.112L757 262.128H767.08L752.896 300H742.384ZM789.175 300.864C784.999 300.864 781.495 300.168 778.663 298.776C775.831 297.336 773.695 295.152 772.255 292.224C770.815 289.296 770.095 285.576 770.095 281.064C770.095 276.504 770.815 272.784 772.255 269.904C773.695 266.976 775.807 264.816 778.591 263.424C781.423 261.984 784.879 261.264 788.959 261.264C792.799 261.264 796.039 261.96 798.679 263.352C801.319 264.696 803.311 266.808 804.655 269.688C805.999 272.52 806.671 276.192 806.671 280.704V283.296H780.247C780.343 285.504 780.679 287.376 781.255 288.912C781.879 290.448 782.815 291.6 784.063 292.368C785.359 293.088 787.063 293.448 789.175 293.448C790.327 293.448 791.359 293.304 792.271 293.016C793.231 292.728 794.047 292.296 794.719 291.72C795.391 291.144 795.919 290.424 796.303 289.56C796.687 288.696 796.879 287.712 796.879 286.608H806.671C806.671 289.008 806.239 291.096 805.375 292.872C804.511 294.648 803.311 296.136 801.775 297.336C800.239 298.488 798.391 299.376 796.231 300C794.119 300.576 791.767 300.864 789.175 300.864ZM780.391 276.96H796.375C796.375 275.52 796.183 274.272 795.799 273.216C795.463 272.16 794.983 271.296 794.359 270.624C793.735 269.952 792.967 269.472 792.055 269.184C791.191 268.848 790.207 268.68 789.103 268.68C787.279 268.68 785.743 268.992 784.495 269.616C783.295 270.192 782.359 271.104 781.687 272.352C781.063 273.552 780.631 275.088 780.391 276.96ZM814.014 300V262.128H822.294L823.086 268.032H823.59C824.07 266.784 824.694 265.656 825.462 264.648C826.23 263.592 827.19 262.752 828.342 262.128C829.494 261.504 830.838 261.192 832.374 261.192C833.19 261.192 833.934 261.288 834.606 261.48C835.278 261.624 835.782 261.768 836.118 261.912V270.984H833.022C831.534 270.984 830.214 271.2 829.062 271.632C827.958 272.016 827.022 272.64 826.254 273.504C825.486 274.368 824.91 275.424 824.526 276.672C824.19 277.92 824.022 279.384 824.022 281.064V300H814.014ZM856.702 300.864C854.062 300.864 851.686 300.576 849.574 300C847.462 299.424 845.662 298.632 844.174 297.624C842.686 296.568 841.534 295.32 840.718 293.88C839.95 292.44 839.566 290.808 839.566 288.984C839.566 288.792 839.566 288.6 839.566 288.408C839.566 288.216 839.59 288.072 839.638 287.976H849.286C849.286 288.072 849.286 288.168 849.286 288.264C849.286 288.36 849.286 288.456 849.286 288.552C849.334 289.752 849.718 290.736 850.438 291.504C851.158 292.224 852.094 292.752 853.246 293.088C854.446 293.424 855.694 293.592 856.99 293.592C858.142 293.592 859.246 293.496 860.302 293.304C861.406 293.064 862.318 292.656 863.038 292.08C863.806 291.504 864.19 290.76 864.19 289.848C864.19 288.696 863.71 287.808 862.75 287.184C861.838 286.56 860.614 286.056 859.078 285.672C857.59 285.288 855.958 284.856 854.182 284.376C852.55 283.992 850.918 283.56 849.286 283.08C847.654 282.552 846.166 281.88 844.822 281.064C843.526 280.248 842.47 279.192 841.654 277.896C840.838 276.552 840.43 274.872 840.43 272.856C840.43 270.888 840.862 269.184 841.726 267.744C842.59 266.256 843.766 265.032 845.254 264.072C846.79 263.112 848.566 262.416 850.582 261.984C852.646 261.504 854.854 261.264 857.206 261.264C859.414 261.264 861.478 261.504 863.398 261.984C865.318 262.416 866.998 263.088 868.438 264C869.878 264.864 871.006 265.968 871.822 267.312C872.638 268.608 873.046 270.072 873.046 271.704C873.046 272.04 873.046 272.352 873.046 272.64C873.046 272.928 873.022 273.12 872.974 273.216H863.398V272.64C863.398 271.776 863.134 271.056 862.606 270.48C862.078 269.856 861.31 269.376 860.302 269.04C859.342 268.704 858.166 268.536 856.774 268.536C855.814 268.536 854.926 268.608 854.11 268.752C853.342 268.896 852.67 269.112 852.094 269.4C851.518 269.688 851.062 270.048 850.726 270.48C850.438 270.864 850.294 271.344 850.294 271.92C850.294 272.736 850.63 273.408 851.302 273.936C852.022 274.416 852.958 274.824 854.11 275.16C855.262 275.496 856.534 275.856 857.926 276.24C859.654 276.72 861.454 277.2 863.326 277.68C865.246 278.112 867.022 278.712 868.654 279.48C870.286 280.248 871.606 281.352 872.614 282.792C873.622 284.184 874.126 286.08 874.126 288.48C874.126 290.784 873.67 292.728 872.758 294.312C871.894 295.896 870.67 297.168 869.086 298.128C867.502 299.088 865.654 299.784 863.542 300.216C861.43 300.648 859.15 300.864 856.702 300.864ZM898.798 300.864C894.67 300.864 891.166 300.168 888.286 298.776C885.406 297.336 883.222 295.152 881.734 292.224C880.246 289.248 879.502 285.528 879.502 281.064C879.502 276.504 880.246 272.784 881.734 269.904C883.222 266.976 885.406 264.816 888.286 263.424C891.166 261.984 894.67 261.264 898.798 261.264C903.022 261.264 906.55 261.984 909.382 263.424C912.262 264.816 914.446 266.976 915.934 269.904C917.422 272.784 918.166 276.504 918.166 281.064C918.166 285.528 917.422 289.248 915.934 292.224C914.446 295.152 912.262 297.336 909.382 298.776C906.55 300.168 903.022 300.864 898.798 300.864ZM898.798 293.088C901.006 293.088 902.758 292.68 904.054 291.864C905.398 291.048 906.382 289.8 907.006 288.12C907.63 286.44 907.942 284.376 907.942 281.928V280.2C907.942 277.752 907.63 275.688 907.006 274.008C906.382 272.328 905.398 271.08 904.054 270.264C902.758 269.4 901.006 268.968 898.798 268.968C896.638 268.968 894.886 269.4 893.542 270.264C892.246 271.08 891.286 272.328 890.662 274.008C890.038 275.688 889.726 277.752 889.726 280.2V281.928C889.726 284.376 890.038 286.44 890.662 288.12C891.286 289.8 892.246 291.048 893.542 291.864C894.886 292.68 896.638 293.088 898.798 293.088ZM925.53 300V262.128H933.81L934.602 268.032H935.106C935.586 266.784 936.21 265.656 936.978 264.648C937.746 263.592 938.706 262.752 939.858 262.128C941.01 261.504 942.354 261.192 943.89 261.192C944.706 261.192 945.45 261.288 946.122 261.48C946.794 261.624 947.298 261.768 947.634 261.912V270.984H944.538C943.05 270.984 941.73 271.2 940.578 271.632C939.474 272.016 938.538 272.64 937.77 273.504C937.002 274.368 936.426 275.424 936.042 276.672C935.706 277.92 935.538 279.384 935.538 281.064V300H925.53Z" fill="#A2E497"/>
<path d="M712.062 311.938V329H708.84V311.938H712.062ZM718.344 319.027V329H715.25V316.32H718.156L718.344 319.027ZM717.852 322.203H716.938C716.945 321.281 717.07 320.445 717.312 319.695C717.555 318.945 717.895 318.301 718.332 317.762C718.777 317.223 719.305 316.809 719.914 316.52C720.523 316.23 721.203 316.086 721.953 316.086C722.562 316.086 723.113 316.172 723.605 316.344C724.098 316.516 724.52 316.789 724.871 317.164C725.23 317.539 725.504 318.031 725.691 318.641C725.887 319.242 725.984 319.984 725.984 320.867V329H722.867V320.844C722.867 320.266 722.781 319.809 722.609 319.473C722.445 319.137 722.203 318.898 721.883 318.758C721.57 318.617 721.184 318.547 720.723 318.547C720.246 318.547 719.828 318.645 719.469 318.84C719.117 319.027 718.82 319.289 718.578 319.625C718.344 319.961 718.164 320.348 718.039 320.785C717.914 321.223 717.852 321.695 717.852 322.203ZM732.922 326.656L735.875 316.32H739.109L734.762 329H732.793L732.922 326.656ZM730.766 316.32L733.754 326.68L733.859 329H731.879L727.52 316.32H730.766ZM746.27 329.234C745.309 329.234 744.445 329.078 743.68 328.766C742.914 328.453 742.262 328.02 741.723 327.465C741.191 326.902 740.781 326.25 740.492 325.508C740.211 324.758 740.07 323.953 740.07 323.094V322.625C740.07 321.648 740.211 320.762 740.492 319.965C740.773 319.16 741.172 318.469 741.688 317.891C742.203 317.312 742.82 316.867 743.539 316.555C744.258 316.242 745.051 316.086 745.918 316.086C746.816 316.086 747.609 316.238 748.297 316.543C748.984 316.84 749.559 317.262 750.02 317.809C750.48 318.355 750.828 319.012 751.062 319.777C751.297 320.535 751.414 321.375 751.414 322.297V323.598H741.477V321.465H748.367V321.23C748.352 320.738 748.258 320.289 748.086 319.883C747.914 319.469 747.648 319.141 747.289 318.898C746.93 318.648 746.465 318.523 745.895 318.523C745.434 318.523 745.031 318.625 744.688 318.828C744.352 319.023 744.07 319.305 743.844 319.672C743.625 320.031 743.461 320.461 743.352 320.961C743.242 321.461 743.188 322.016 743.188 322.625V323.094C743.188 323.625 743.258 324.117 743.398 324.57C743.547 325.023 743.762 325.418 744.043 325.754C744.332 326.082 744.676 326.34 745.074 326.527C745.48 326.707 745.941 326.797 746.457 326.797C747.105 326.797 747.691 326.672 748.215 326.422C748.746 326.164 749.207 325.785 749.598 325.285L751.156 326.902C750.891 327.293 750.531 327.668 750.078 328.027C749.633 328.387 749.094 328.68 748.461 328.906C747.828 329.125 747.098 329.234 746.27 329.234ZM760.461 325.531C760.461 325.266 760.391 325.027 760.25 324.816C760.109 324.605 759.844 324.414 759.453 324.242C759.07 324.062 758.508 323.895 757.766 323.738C757.109 323.598 756.504 323.422 755.949 323.211C755.395 323 754.918 322.746 754.52 322.449C754.121 322.145 753.809 321.789 753.582 321.383C753.363 320.969 753.254 320.492 753.254 319.953C753.254 319.43 753.367 318.938 753.594 318.477C753.82 318.008 754.148 317.598 754.578 317.246C755.008 316.887 755.531 316.605 756.148 316.402C756.766 316.191 757.461 316.086 758.234 316.086C759.312 316.086 760.238 316.262 761.012 316.613C761.793 316.965 762.391 317.449 762.805 318.066C763.219 318.676 763.426 319.363 763.426 320.129H760.332C760.332 319.793 760.254 319.488 760.098 319.215C759.949 318.941 759.719 318.723 759.406 318.559C759.094 318.387 758.699 318.301 758.223 318.301C757.793 318.301 757.43 318.371 757.133 318.512C756.844 318.652 756.625 318.836 756.477 319.062C756.328 319.289 756.254 319.539 756.254 319.812C756.254 320.016 756.293 320.199 756.371 320.363C756.457 320.52 756.594 320.664 756.781 320.797C756.969 320.93 757.223 321.051 757.543 321.16C757.871 321.27 758.273 321.375 758.75 321.477C759.695 321.664 760.52 321.914 761.223 322.227C761.934 322.531 762.488 322.938 762.887 323.445C763.285 323.953 763.484 324.602 763.484 325.391C763.484 325.953 763.363 326.469 763.121 326.938C762.879 327.398 762.527 327.801 762.066 328.145C761.605 328.488 761.055 328.758 760.414 328.953C759.773 329.141 759.051 329.234 758.246 329.234C757.082 329.234 756.098 329.027 755.293 328.613C754.488 328.191 753.879 327.66 753.465 327.02C753.051 326.371 752.844 325.699 752.844 325.004H755.809C755.832 325.496 755.965 325.891 756.207 326.188C756.449 326.484 756.754 326.699 757.121 326.832C757.496 326.957 757.891 327.02 758.305 327.02C758.773 327.02 759.168 326.957 759.488 326.832C759.809 326.699 760.051 326.523 760.215 326.305C760.379 326.078 760.461 325.82 760.461 325.531ZM771.84 316.32V318.547H764.574V316.32H771.84ZM766.52 313.203H769.625V325.344C769.625 325.719 769.676 326.008 769.777 326.211C769.879 326.414 770.031 326.551 770.234 326.621C770.438 326.691 770.68 326.727 770.961 326.727C771.164 326.727 771.352 326.715 771.523 326.691C771.695 326.668 771.84 326.645 771.957 326.621L771.969 328.941C771.711 329.027 771.418 329.098 771.09 329.152C770.77 329.207 770.406 329.234 770 329.234C769.305 329.234 768.695 329.117 768.172 328.883C767.648 328.641 767.242 328.254 766.953 327.723C766.664 327.184 766.52 326.473 766.52 325.59V313.203ZM776.984 318.922V329H773.891V316.32H776.809L776.984 318.922ZM776.527 322.203H775.578C775.578 321.32 775.684 320.508 775.895 319.766C776.113 319.023 776.434 318.379 776.855 317.832C777.277 317.277 777.797 316.848 778.414 316.543C779.039 316.238 779.762 316.086 780.582 316.086C781.152 316.086 781.676 316.172 782.152 316.344C782.629 316.508 783.039 316.77 783.383 317.129C783.734 317.48 784.004 317.941 784.191 318.512C784.379 319.074 784.473 319.75 784.473 320.539V329H781.379V320.855C781.379 320.262 781.293 319.797 781.121 319.461C780.957 319.125 780.719 318.891 780.406 318.758C780.094 318.617 779.719 318.547 779.281 318.547C778.797 318.547 778.379 318.645 778.027 318.84C777.684 319.027 777.398 319.289 777.172 319.625C776.953 319.961 776.789 320.348 776.68 320.785C776.578 321.223 776.527 321.695 776.527 322.203ZM784.238 321.629L782.961 321.863C782.969 321.066 783.078 320.32 783.289 319.625C783.5 318.922 783.809 318.309 784.215 317.785C784.629 317.254 785.141 316.84 785.75 316.543C786.367 316.238 787.078 316.086 787.883 316.086C788.508 316.086 789.07 316.176 789.57 316.355C790.078 316.527 790.512 316.805 790.871 317.188C791.23 317.562 791.504 318.051 791.691 318.652C791.887 319.254 791.984 319.988 791.984 320.855V329H788.867V320.844C788.867 320.227 788.781 319.754 788.609 319.426C788.445 319.098 788.207 318.871 787.895 318.746C787.582 318.613 787.215 318.547 786.793 318.547C786.363 318.547 785.988 318.629 785.668 318.793C785.355 318.949 785.09 319.168 784.871 319.449C784.66 319.73 784.5 320.059 784.391 320.434C784.289 320.801 784.238 321.199 784.238 321.629ZM800.457 329.234C799.496 329.234 798.633 329.078 797.867 328.766C797.102 328.453 796.449 328.02 795.91 327.465C795.379 326.902 794.969 326.25 794.68 325.508C794.398 324.758 794.258 323.953 794.258 323.094V322.625C794.258 321.648 794.398 320.762 794.68 319.965C794.961 319.16 795.359 318.469 795.875 317.891C796.391 317.312 797.008 316.867 797.727 316.555C798.445 316.242 799.238 316.086 800.105 316.086C801.004 316.086 801.797 316.238 802.484 316.543C803.172 316.84 803.746 317.262 804.207 317.809C804.668 318.355 805.016 319.012 805.25 319.777C805.484 320.535 805.602 321.375 805.602 322.297V323.598H795.664V321.465H802.555V321.23C802.539 320.738 802.445 320.289 802.273 319.883C802.102 319.469 801.836 319.141 801.477 318.898C801.117 318.648 800.652 318.523 800.082 318.523C799.621 318.523 799.219 318.625 798.875 318.828C798.539 319.023 798.258 319.305 798.031 319.672C797.812 320.031 797.648 320.461 797.539 320.961C797.43 321.461 797.375 322.016 797.375 322.625V323.094C797.375 323.625 797.445 324.117 797.586 324.57C797.734 325.023 797.949 325.418 798.23 325.754C798.52 326.082 798.863 326.34 799.262 326.527C799.668 326.707 800.129 326.797 800.645 326.797C801.293 326.797 801.879 326.672 802.402 326.422C802.934 326.164 803.395 325.785 803.785 325.285L805.344 326.902C805.078 327.293 804.719 327.668 804.266 328.027C803.82 328.387 803.281 328.68 802.648 328.906C802.016 329.125 801.285 329.234 800.457 329.234ZM810.711 319.027V329H807.617V316.32H810.523L810.711 319.027ZM810.219 322.203H809.305C809.312 321.281 809.438 320.445 809.68 319.695C809.922 318.945 810.262 318.301 810.699 317.762C811.145 317.223 811.672 316.809 812.281 316.52C812.891 316.23 813.57 316.086 814.32 316.086C814.93 316.086 815.48 316.172 815.973 316.344C816.465 316.516 816.887 316.789 817.238 317.164C817.598 317.539 817.871 318.031 818.059 318.641C818.254 319.242 818.352 319.984 818.352 320.867V329H815.234V320.844C815.234 320.266 815.148 319.809 814.977 319.473C814.812 319.137 814.57 318.898 814.25 318.758C813.938 318.617 813.551 318.547 813.09 318.547C812.613 318.547 812.195 318.645 811.836 318.84C811.484 319.027 811.188 319.289 810.945 319.625C810.711 319.961 810.531 320.348 810.406 320.785C810.281 321.223 810.219 321.695 810.219 322.203ZM827.082 316.32V318.547H819.816V316.32H827.082ZM821.762 313.203H824.867V325.344C824.867 325.719 824.918 326.008 825.02 326.211C825.121 326.414 825.273 326.551 825.477 326.621C825.68 326.691 825.922 326.727 826.203 326.727C826.406 326.727 826.594 326.715 826.766 326.691C826.938 326.668 827.082 326.645 827.199 326.621L827.211 328.941C826.953 329.027 826.66 329.098 826.332 329.152C826.012 329.207 825.648 329.234 825.242 329.234C824.547 329.234 823.938 329.117 823.414 328.883C822.891 328.641 822.484 328.254 822.195 327.723C821.906 327.184 821.762 326.473 821.762 325.59V313.203ZM844.285 324.57C844.285 324.242 844.234 323.949 844.133 323.691C844.039 323.426 843.863 323.188 843.605 322.977C843.355 322.758 843 322.547 842.539 322.344C842.086 322.133 841.5 321.914 840.781 321.688C839.984 321.438 839.242 321.156 838.555 320.844C837.867 320.531 837.262 320.168 836.738 319.754C836.223 319.34 835.82 318.863 835.531 318.324C835.242 317.777 835.098 317.145 835.098 316.426C835.098 315.723 835.246 315.082 835.543 314.504C835.848 313.926 836.277 313.43 836.832 313.016C837.387 312.594 838.039 312.27 838.789 312.043C839.547 311.816 840.383 311.703 841.297 311.703C842.562 311.703 843.656 311.934 844.578 312.395C845.508 312.855 846.227 313.48 846.734 314.27C847.242 315.059 847.496 315.945 847.496 316.93H844.285C844.285 316.398 844.172 315.93 843.945 315.523C843.727 315.117 843.391 314.797 842.938 314.562C842.492 314.328 841.93 314.211 841.25 314.211C840.594 314.211 840.047 314.309 839.609 314.504C839.18 314.699 838.855 314.965 838.637 315.301C838.426 315.637 838.32 316.012 838.32 316.426C838.32 316.738 838.395 317.02 838.543 317.27C838.691 317.512 838.914 317.742 839.211 317.961C839.508 318.172 839.875 318.371 840.312 318.559C840.758 318.738 841.273 318.918 841.859 319.098C842.797 319.379 843.617 319.691 844.32 320.035C845.031 320.379 845.621 320.77 846.09 321.207C846.566 321.645 846.922 322.137 847.156 322.684C847.398 323.23 847.52 323.852 847.52 324.547C847.52 325.281 847.375 325.938 847.086 326.516C846.797 327.094 846.383 327.586 845.844 327.992C845.305 328.398 844.656 328.707 843.898 328.918C843.148 329.129 842.309 329.234 841.379 329.234C840.551 329.234 839.73 329.125 838.918 328.906C838.113 328.68 837.383 328.344 836.727 327.898C836.07 327.445 835.547 326.875 835.156 326.188C834.766 325.492 834.57 324.68 834.57 323.75H837.805C837.805 324.289 837.891 324.75 838.062 325.133C838.242 325.508 838.492 325.816 838.812 326.059C839.141 326.293 839.523 326.465 839.961 326.574C840.398 326.684 840.871 326.738 841.379 326.738C842.035 326.738 842.574 326.648 842.996 326.469C843.426 326.281 843.746 326.023 843.957 325.695C844.176 325.367 844.285 324.992 844.285 324.57ZM853.051 316.32V329H849.945V316.32H853.051ZM849.734 313.004C849.734 312.543 849.891 312.16 850.203 311.855C850.523 311.551 850.953 311.398 851.492 311.398C852.031 311.398 852.457 311.551 852.77 311.855C853.09 312.16 853.25 312.543 853.25 313.004C853.25 313.457 853.09 313.836 852.77 314.141C852.457 314.445 852.031 314.598 851.492 314.598C850.953 314.598 850.523 314.445 850.203 314.141C849.891 313.836 849.734 313.457 849.734 313.004ZM859.086 318.922V329H855.992V316.32H858.91L859.086 318.922ZM858.629 322.203H857.68C857.68 321.32 857.785 320.508 857.996 319.766C858.215 319.023 858.535 318.379 858.957 317.832C859.379 317.277 859.898 316.848 860.516 316.543C861.141 316.238 861.863 316.086 862.684 316.086C863.254 316.086 863.777 316.172 864.254 316.344C864.73 316.508 865.141 316.77 865.484 317.129C865.836 317.48 866.105 317.941 866.293 318.512C866.48 319.074 866.574 319.75 866.574 320.539V329H863.48V320.855C863.48 320.262 863.395 319.797 863.223 319.461C863.059 319.125 862.82 318.891 862.508 318.758C862.195 318.617 861.82 318.547 861.383 318.547C860.898 318.547 860.48 318.645 860.129 318.84C859.785 319.027 859.5 319.289 859.273 319.625C859.055 319.961 858.891 320.348 858.781 320.785C858.68 321.223 858.629 321.695 858.629 322.203ZM866.34 321.629L865.062 321.863C865.07 321.066 865.18 320.32 865.391 319.625C865.602 318.922 865.91 318.309 866.316 317.785C866.73 317.254 867.242 316.84 867.852 316.543C868.469 316.238 869.18 316.086 869.984 316.086C870.609 316.086 871.172 316.176 871.672 316.355C872.18 316.527 872.613 316.805 872.973 317.188C873.332 317.562 873.605 318.051 873.793 318.652C873.988 319.254 874.086 319.988 874.086 320.855V329H870.969V320.844C870.969 320.227 870.883 319.754 870.711 319.426C870.547 319.098 870.309 318.871 869.996 318.746C869.684 318.613 869.316 318.547 868.895 318.547C868.465 318.547 868.09 318.629 867.77 318.793C867.457 318.949 867.191 319.168 866.973 319.449C866.762 319.73 866.602 320.059 866.492 320.434C866.391 320.801 866.34 321.199 866.34 321.629ZM884.41 325.988V316.32H887.527V329H884.598L884.41 325.988ZM884.809 323.363L885.77 323.34C885.77 324.191 885.676 324.977 885.488 325.695C885.301 326.414 885.008 327.039 884.609 327.57C884.219 328.094 883.723 328.504 883.121 328.801C882.52 329.09 881.809 329.234 880.988 329.234C880.363 329.234 879.793 329.148 879.277 328.977C878.762 328.797 878.316 328.52 877.941 328.145C877.574 327.762 877.289 327.273 877.086 326.68C876.883 326.078 876.781 325.355 876.781 324.512V316.32H879.875V324.535C879.875 324.957 879.922 325.309 880.016 325.59C880.117 325.871 880.254 326.102 880.426 326.281C880.605 326.453 880.812 326.578 881.047 326.656C881.289 326.727 881.547 326.762 881.82 326.762C882.57 326.762 883.16 326.613 883.59 326.316C884.027 326.012 884.34 325.605 884.527 325.098C884.715 324.582 884.809 324.004 884.809 323.363ZM893.551 311V329H890.445V311H893.551ZM903.488 326.305V320.457C903.488 320.027 903.414 319.656 903.266 319.344C903.117 319.031 902.891 318.789 902.586 318.617C902.281 318.445 901.895 318.359 901.426 318.359C901.012 318.359 900.648 318.43 900.336 318.57C900.031 318.711 899.797 318.91 899.633 319.168C899.469 319.418 899.387 319.707 899.387 320.035H896.281C896.281 319.512 896.406 319.016 896.656 318.547C896.906 318.07 897.262 317.648 897.723 317.281C898.191 316.906 898.75 316.613 899.398 316.402C900.055 316.191 900.789 316.086 901.602 316.086C902.562 316.086 903.418 316.25 904.168 316.578C904.926 316.898 905.52 317.383 905.949 318.031C906.387 318.68 906.605 319.496 906.605 320.48V326.012C906.605 326.645 906.645 327.188 906.723 327.641C906.809 328.086 906.934 328.473 907.098 328.801V329H903.945C903.797 328.68 903.684 328.273 903.605 327.781C903.527 327.281 903.488 326.789 903.488 326.305ZM903.922 321.277L903.945 323.117H901.988C901.504 323.117 901.078 323.168 900.711 323.27C900.344 323.363 900.043 323.504 899.809 323.691C899.574 323.871 899.398 324.09 899.281 324.348C899.164 324.598 899.105 324.883 899.105 325.203C899.105 325.516 899.176 325.797 899.316 326.047C899.465 326.297 899.676 326.496 899.949 326.645C900.23 326.785 900.559 326.855 900.934 326.855C901.48 326.855 901.957 326.746 902.363 326.527C902.77 326.301 903.086 326.027 903.312 325.707C903.539 325.387 903.66 325.082 903.676 324.793L904.566 326.129C904.457 326.449 904.293 326.789 904.074 327.148C903.855 327.508 903.574 327.844 903.23 328.156C902.887 328.469 902.473 328.727 901.988 328.93C901.504 329.133 900.941 329.234 900.301 329.234C899.48 329.234 898.746 329.07 898.098 328.742C897.449 328.414 896.938 327.965 896.562 327.395C896.188 326.824 896 326.176 896 325.449C896 324.777 896.125 324.184 896.375 323.668C896.625 323.152 896.996 322.719 897.488 322.367C897.98 322.008 898.59 321.738 899.316 321.559C900.051 321.371 900.891 321.277 901.836 321.277H903.922ZM915.395 316.32V318.547H908.129V316.32H915.395ZM910.074 313.203H913.18V325.344C913.18 325.719 913.23 326.008 913.332 326.211C913.434 326.414 913.586 326.551 913.789 326.621C913.992 326.691 914.234 326.727 914.516 326.727C914.719 326.727 914.906 326.715 915.078 326.691C915.25 326.668 915.395 326.645 915.512 326.621L915.523 328.941C915.266 329.027 914.973 329.098 914.645 329.152C914.324 329.207 913.961 329.234 913.555 329.234C912.859 329.234 912.25 329.117 911.727 328.883C911.203 328.641 910.797 328.254 910.508 327.723C910.219 327.184 910.074 326.473 910.074 325.59V313.203ZM916.602 322.789V322.543C916.602 321.613 916.734 320.758 917 319.977C917.266 319.188 917.652 318.504 918.16 317.926C918.668 317.348 919.289 316.898 920.023 316.578C920.758 316.25 921.594 316.086 922.531 316.086C923.484 316.086 924.328 316.25 925.062 316.578C925.805 316.898 926.43 317.348 926.938 317.926C927.445 318.504 927.832 319.188 928.098 319.977C928.363 320.758 928.496 321.613 928.496 322.543V322.789C928.496 323.711 928.363 324.566 928.098 325.355C927.832 326.137 927.445 326.82 926.938 327.406C926.43 327.984 925.809 328.434 925.074 328.754C924.34 329.074 923.5 329.234 922.555 329.234C921.617 329.234 920.777 329.074 920.035 328.754C919.293 328.434 918.668 327.984 918.16 327.406C917.652 326.82 917.266 326.137 917 325.355C916.734 324.566 916.602 323.711 916.602 322.789ZM919.695 322.543V322.789C919.695 323.344 919.75 323.863 919.859 324.348C919.969 324.832 920.137 325.258 920.363 325.625C920.59 325.992 920.883 326.281 921.242 326.492C921.609 326.695 922.047 326.797 922.555 326.797C923.055 326.797 923.484 326.695 923.844 326.492C924.203 326.281 924.496 325.992 924.723 325.625C924.957 325.258 925.129 324.832 925.238 324.348C925.348 323.863 925.402 323.344 925.402 322.789V322.543C925.402 321.996 925.348 321.484 925.238 321.008C925.129 320.523 924.957 320.098 924.723 319.73C924.496 319.355 924.199 319.062 923.832 318.852C923.473 318.633 923.039 318.523 922.531 318.523C922.031 318.523 921.602 318.633 921.242 318.852C920.883 319.062 920.59 319.355 920.363 319.73C920.137 320.098 919.969 320.523 919.859 321.008C919.75 321.484 919.695 321.996 919.695 322.543ZM933.84 318.91V329H930.746V316.32H933.676L933.84 318.91ZM937.695 316.238L937.648 319.121C937.477 319.09 937.281 319.066 937.062 319.051C936.852 319.035 936.652 319.027 936.465 319.027C935.988 319.027 935.57 319.094 935.211 319.227C934.852 319.352 934.551 319.535 934.309 319.777C934.074 320.02 933.895 320.316 933.77 320.668C933.645 321.012 933.574 321.402 933.559 321.84L932.891 321.758C932.891 320.953 932.973 320.207 933.137 319.52C933.301 318.832 933.539 318.23 933.852 317.715C934.164 317.199 934.555 316.801 935.023 316.52C935.5 316.23 936.047 316.086 936.664 316.086C936.836 316.086 937.02 316.102 937.215 316.133C937.418 316.156 937.578 316.191 937.695 316.238Z" fill="#D8E6EB"/>
</g>
<defs>
<linearGradient id="paint0_linear_85_663" x1="804.5" y1="131" x2="804.5" y2="436" gradientUnits="userSpaceOnUse">
<stop stop-color="#4339B8"/>
<stop offset="0.838542" stop-color="#1B1841"/>
</linearGradient>
<clipPath id="clip0_85_663">
<rect width="1440" height="606" fill="white"/>
</clipPath>
</defs>
</svg>
