<svg width="331" height="545" viewBox="0 0 331 545" fill="none" xmlns="http://www.w3.org/2000/svg">
<path d="M226.049 227.915V1H330V257.66" stroke="#CCDDE2" stroke-width="2" stroke-miterlimit="10"/>
<path d="M236.382 153.038V166.317H249.661V141.95H236.382V153.038ZM238.564 144.124H247.461V153.038H238.564V144.124ZM238.564 155.216H247.461V164.138H238.564V155.216Z" fill="#D7E8F0"/>
<path d="M259.795 153.038V166.317H273.075V141.95H259.795V153.038ZM261.986 144.132H270.9V153.038H261.986V144.132ZM261.986 155.225H270.9V164.138H261.986V155.225Z" fill="#D7E8F0"/>
<path d="M282.569 153.038V166.317H295.848V141.95H282.569V153.038ZM284.751 144.124H293.665V153.038H284.751V144.124ZM284.751 155.216H293.665V164.138H284.751V155.216Z" fill="#D7E8F0"/>
<path d="M304.006 153.038V166.317H317.285V141.95H304.006V153.038ZM306.185 144.124H315.102V153.038H306.185V144.124ZM306.185 155.216H315.102V164.138H306.185V155.216Z" fill="#D7E8F0"/>
<path d="M221.464 432.368C217.957 435.904 214.484 439.838 210.782 443.41C209.765 444.404 208.723 445.364 207.658 446.29C206.475 447.32 205.255 448.299 204.006 449.195C203.916 448.934 203.804 448.68 203.674 448.436C201.578 444.286 195.893 441.659 195.188 436.954C194.545 432.559 198.508 428.521 197.86 424.214C197.13 419.342 191.138 416.45 190.03 411.69C189.324 408.735 189.955 405.328 189.698 402.283C189.403 398.877 188.828 395.501 187.976 392.19C188.391 392.161 188.806 392.149 189.221 392.136C197.644 391.995 205.936 396.726 208.662 403.374C210.857 408.769 209.741 414.956 212.658 419.998C212.834 420.324 213.032 420.637 213.252 420.936C213.638 421.465 214.054 421.972 214.496 422.454L215.422 423.417C215.575 423.571 215.746 423.712 215.899 423.878C216.053 424.044 216.219 424.189 216.372 424.355C217.825 425.745 219.306 427.144 220.269 428.803C220.356 428.948 220.434 429.097 220.501 429.252C220.589 429.406 220.666 429.565 220.734 429.729C220.821 429.907 220.887 430.077 220.949 430.243C221.012 430.409 221.09 430.658 221.157 430.833C221.248 431.144 221.335 431.439 221.402 431.746C221.402 431.824 221.402 431.891 221.427 431.953C221.451 432.015 221.427 432.003 221.427 432.032C221.433 432.056 221.433 432.082 221.427 432.107C221.427 432.161 221.427 432.198 221.451 432.235V432.26C221.446 432.297 221.45 432.334 221.464 432.368Z" fill="white"/>
<path d="M221.519 432.625H221.532L221.519 432.638V432.625Z" fill="white"/>
<path d="M221.544 432.6C221.648 432.509 221.735 432.447 221.839 432.355C221.752 432.434 221.648 432.521 221.557 432.613C221.557 432.613 221.557 432.613 221.532 432.613L221.544 432.6Z" fill="white"/>
<path d="M251.035 412.171C250.946 413.618 250.946 415.069 251.035 416.516C248.504 417.134 246.01 417.815 243.566 418.637C242.047 419.139 240.557 419.691 239.067 420.321C234.934 421.998 231.042 424.217 227.494 426.92C228.267 425.601 228.811 424.162 229.104 422.662C229.104 422.6 229.129 422.533 229.141 422.459C229.784 419.35 229.834 416.085 231.299 413.113C234.025 407.636 241.997 403.665 250.342 403.407H250.496C251.255 403.407 252.027 403.407 252.799 403.445C251.934 406.291 251.344 409.213 251.035 412.171Z" fill="white"/>
<path d="M247.243 408.171L243.542 418.62C242.023 419.122 240.533 419.674 239.043 420.305C241.421 415.682 244.143 411.503 247.243 408.171Z" fill="white"/>
<path d="M221.559 432.642C221.559 432.559 221.547 432.476 221.522 432.397C221.547 432.551 221.559 432.642 221.559 432.642Z" fill="white"/>
<path d="M193.413 397.668C201.712 408.428 207.223 426.716 210.783 443.41C209.765 444.403 208.724 445.363 207.659 446.29L193.413 397.668Z" fill="white"/>
<path d="M222.718 415.811C221.059 420.877 220.996 425.994 221.191 429.235C221.241 430.282 221.352 431.326 221.523 432.36L222.718 415.811Z" fill="white"/>
<path d="M221.464 432.368C217.957 435.904 214.484 439.838 210.782 443.41C209.765 444.404 208.723 445.364 207.658 446.29C206.475 447.32 205.255 448.299 204.006 449.195C203.916 448.934 203.804 448.68 203.674 448.436C201.578 444.286 195.893 441.659 195.188 436.954C194.545 432.559 198.508 428.521 197.86 424.214C197.13 419.342 191.138 416.45 190.03 411.69C189.324 408.735 189.955 405.328 189.698 402.283C189.403 398.877 188.828 395.501 187.976 392.19C188.391 392.161 188.806 392.149 189.221 392.136C197.644 391.995 205.936 396.726 208.662 403.374C210.857 408.769 209.741 414.956 212.658 419.998C212.834 420.324 213.032 420.637 213.252 420.936C213.638 421.465 214.054 421.972 214.496 422.454L215.422 423.417C215.575 423.571 215.746 423.712 215.899 423.878C216.053 424.044 216.219 424.189 216.372 424.355C217.825 425.745 219.306 427.144 220.269 428.803C220.356 428.948 220.434 429.097 220.501 429.252C220.589 429.406 220.666 429.565 220.734 429.729C220.821 429.907 220.887 430.077 220.949 430.243C221.012 430.409 221.09 430.658 221.157 430.833C221.248 431.144 221.335 431.439 221.402 431.746C221.402 431.824 221.402 431.891 221.427 431.953C221.451 432.015 221.427 432.003 221.427 432.032C221.433 432.056 221.433 432.082 221.427 432.107C221.427 432.161 221.427 432.198 221.451 432.235V432.26C221.446 432.297 221.45 432.334 221.464 432.368Z" stroke="#CCDDE2" stroke-width="2" stroke-miterlimit="10"/>
<path d="M229.104 422.674C228.81 424.17 228.266 425.605 227.494 426.919" stroke="#CCDDE2" stroke-width="2" stroke-miterlimit="10"/>
<path d="M251.023 416.516C250.934 415.069 250.934 413.618 251.023 412.171C251.333 409.217 251.924 406.299 252.787 403.457C252.015 403.407 251.243 403.407 250.484 403.42H250.33C241.985 403.677 234.014 407.648 231.287 413.126C229.822 416.097 229.773 419.35 229.129 422.471" stroke="#CCDDE2" stroke-width="2" stroke-miterlimit="10"/>
<path d="M229.109 422.678C229.109 422.612 229.133 422.55 229.146 422.471" stroke="#CCDDE2" stroke-width="2" stroke-miterlimit="10"/>
<path d="M229.141 422.454C229.141 422.529 229.116 422.595 229.104 422.658C228.812 424.159 228.267 425.6 227.494 426.919" stroke="#CCDDE2" stroke-width="2" stroke-miterlimit="10"/>
<path d="M229.109 422.678C229.109 422.612 229.133 422.55 229.146 422.471" stroke="#CCDDE2" stroke-width="2" stroke-miterlimit="10"/>
<path d="M221.519 432.563V432.626" stroke="#CCDDE2" stroke-width="2" stroke-miterlimit="10"/>
<path d="M247.243 408.171C244.143 411.491 241.434 415.682 239.043 420.321" stroke="#CCDDE2" stroke-width="2" stroke-miterlimit="10"/>
<path d="M221.559 432.642C221.559 432.559 221.547 432.476 221.522 432.397C221.547 432.551 221.559 432.642 221.559 432.642Z" stroke="#CCDDE2" stroke-width="2" stroke-miterlimit="10"/>
<path d="M193.413 397.668C201.712 408.428 207.223 426.716 210.783 443.41" stroke="#CCDDE2" stroke-width="2" stroke-miterlimit="10"/>
<path d="M222.718 415.811C221.059 420.877 220.996 425.994 221.191 429.235C221.241 430.282 221.352 431.326 221.523 432.36" stroke="#CCDDE2" stroke-width="2" stroke-miterlimit="10"/>
<path d="M310.986 296.361C316.269 316.147 321.717 337.464 321.269 357.802C320.792 379.235 309.878 397.224 290.325 406.353C277.598 412.292 263.916 413.383 251.023 416.508C248.491 417.126 245.997 417.807 243.553 418.628C242.034 419.13 240.545 419.682 239.055 420.313C234.926 421.993 231.038 424.215 227.494 426.919" stroke="#CCDDE2" stroke-width="2" stroke-miterlimit="10"/>
<path d="M99.8442 183.745C99.8442 183.745 75.2115 178.123 54.7077 185.053C52.1535 185.894 49.6786 186.961 47.3129 188.24C35.6936 194.527 26.9253 206.341 27.5685 227.799C27.9129 239.003 27.2573 250.054 25.0496 260.777C24.3276 264.257 23.4354 267.701 22.373 271.11C19.7707 279.443 16.0148 287.371 11.2144 294.664C-4.07316 317.844 -1.75761 341.937 15.1982 364.279C16.0862 365.449 16.9991 366.607 17.937 367.74" stroke="#CCDDE2" stroke-width="2" stroke-miterlimit="10"/>
<path d="M279.328 173.479H127.714C110.227 173.479 96.0514 187.655 96.0514 205.141V348.033C96.0514 365.52 110.227 379.695 127.714 379.695H279.328C296.815 379.695 310.99 365.52 310.99 348.033V205.141C310.99 187.655 296.815 173.479 279.328 173.479Z" fill="#4339B8"/>
<path d="M277.225 170.466H126.681C108.033 170.466 92.9147 185.584 92.9147 204.233V345.929C92.9147 364.578 108.033 379.696 126.681 379.696H277.225C295.874 379.696 310.991 364.578 310.991 345.929V204.233C310.991 185.584 295.874 170.466 277.225 170.466Z" stroke="black" stroke-width="2" stroke-miterlimit="10"/>
<path d="M275.1 177.534H131.943C114.456 177.534 100.28 191.709 100.28 209.196V343.975C100.28 361.462 114.456 375.637 131.943 375.637H275.1C292.587 375.637 306.762 361.462 306.762 343.975V209.196C306.762 191.709 292.587 177.534 275.1 177.534Z" fill="#4339B8"/>
<path d="M282.366 187.932H239.13C233.254 187.932 228.486 193.062 228.486 199.373V299.448C228.486 305.772 233.254 310.914 239.13 310.914H282.366C288.254 310.914 293.039 305.772 293.039 299.448V199.373C293.039 193.062 288.254 187.932 282.366 187.932ZM289.977 299.884C289.969 301.987 289.129 304.003 287.642 305.49C286.154 306.977 284.138 307.815 282.034 307.822H239.491C237.384 307.815 235.366 306.976 233.875 305.488C232.384 303.999 231.542 301.982 231.532 299.875V198.962C231.542 196.856 232.384 194.838 233.875 193.35C235.366 191.861 237.384 191.022 239.491 191.016H282.034C284.139 191.022 286.156 191.862 287.645 193.351C289.133 194.84 289.971 196.857 289.977 198.962V299.884Z" fill="#D7E8F0"/>
<path d="M281.797 322.657H238.561C232.689 322.657 227.917 327.787 227.917 334.098V349.319C227.917 355.648 232.689 360.789 238.561 360.789H281.797C287.685 360.789 292.47 355.648 292.47 349.319V334.098C292.47 327.787 287.685 322.657 281.797 322.657ZM289.407 349.759C289.402 351.864 288.563 353.881 287.075 355.369C285.587 356.858 283.57 357.696 281.465 357.702H238.922C236.816 357.696 234.797 356.858 233.306 355.371C231.815 353.882 230.973 351.866 230.963 349.759V333.687C230.973 331.581 231.815 329.563 233.306 328.075C234.797 326.586 236.815 325.747 238.922 325.741H281.465C283.57 325.747 285.587 326.587 287.075 328.076C288.564 329.565 289.402 331.582 289.407 333.687V349.759Z" fill="#D7E8F0"/>
<path d="M184.905 333.721L121.547 332.791C120.866 332.78 120.216 332.499 119.742 332.01C119.267 331.521 119.006 330.863 119.016 330.181C119.015 329.945 119.049 329.71 119.115 329.484C119.279 328.947 119.612 328.479 120.065 328.148C120.518 327.817 121.065 327.642 121.626 327.65L184.984 328.571C184.511 329.307 184.245 330.157 184.216 331.032C184.182 331.976 184.421 332.909 184.905 333.721Z" fill="#4339B8"/>
<path d="M200.268 332.061C200.107 332.596 199.778 333.065 199.329 333.399C198.881 333.732 198.337 333.912 197.778 333.912L193.213 333.845C193.703 333.08 193.969 332.194 193.983 331.286C193.997 330.378 193.758 329.483 193.292 328.704L197.857 328.77C198.537 328.784 199.185 329.066 199.659 329.555C200.133 330.044 200.395 330.7 200.388 331.38C200.38 331.612 200.34 331.841 200.268 332.061Z" fill="#D7E8F0"/>
<path d="M200.119 342.265C199.958 342.8 199.629 343.268 199.18 343.599C198.731 343.93 198.187 344.108 197.629 344.103L134.657 343.182C135.245 342.481 135.622 341.627 135.745 340.72C135.867 339.813 135.73 338.89 135.35 338.057L197.687 338.945C198.368 338.959 199.016 339.24 199.49 339.729C199.964 340.218 200.226 340.875 200.218 341.555C200.221 341.796 200.187 342.035 200.119 342.265Z" fill="#D7E8F0"/>
<path d="M127.079 343.066L121.403 342.983C120.722 342.973 120.074 342.694 119.598 342.207C119.123 341.721 118.86 341.065 118.867 340.385C118.87 340.145 118.904 339.906 118.971 339.676C119.13 339.141 119.459 338.674 119.909 338.344C120.358 338.015 120.903 337.841 121.461 337.85L126.519 337.929C126.223 338.542 126.056 339.21 126.029 339.891C125.987 341.041 126.36 342.168 127.079 343.066Z" fill="#4339B8"/>
<path d="M180.424 354.166L121.635 353.311C120.955 353.296 120.308 353.014 119.834 352.525C119.36 352.037 119.098 351.382 119.103 350.701C119.105 350.471 119.141 350.241 119.211 350.021C119.371 349.485 119.7 349.015 120.148 348.681C120.597 348.348 121.142 348.168 121.701 348.17L180.403 349.033C179.924 349.804 179.67 350.693 179.67 351.6C179.67 352.507 179.924 353.396 180.403 354.166H180.424Z" fill="#4339B8"/>
<path d="M200.363 352.585C200.204 353.12 199.875 353.588 199.426 353.919C198.976 354.25 198.432 354.426 197.874 354.42L188.636 354.299L180.424 354.187C179.945 353.417 179.691 352.528 179.691 351.621C179.691 350.713 179.945 349.825 180.424 349.054L188.79 349.178L197.919 349.311C198.599 349.322 199.246 349.602 199.721 350.088C200.195 350.575 200.457 351.23 200.451 351.909C200.454 352.138 200.424 352.365 200.363 352.585Z" fill="#D7E8F0"/>
<path d="M193.188 333.845C192.551 334.842 191.572 335.574 190.436 335.905C189.298 336.235 188.081 336.142 187.007 335.642C185.934 335.142 185.079 334.27 184.6 333.187C184.121 332.104 184.052 330.885 184.404 329.755C184.757 328.624 185.508 327.661 186.517 327.042C187.527 326.424 188.726 326.193 189.893 326.392C191.06 326.591 192.115 327.207 192.863 328.125C193.61 329.043 193.998 330.201 193.956 331.384C193.926 332.259 193.661 333.109 193.188 333.845Z" fill="white"/>
<g opacity="0.72">
<path opacity="0.72" d="M191.35 330.857C191.24 331.441 190.965 331.982 190.557 332.414C190.359 332.634 190.143 332.836 189.91 333.019C189.781 333.111 189.113 333.646 188.984 333.58C188.105 333.136 186.997 332.019 186.86 330.928C186.837 330.757 186.837 330.584 186.86 330.413C186.908 330.12 187.061 329.853 187.289 329.662C187.518 329.471 187.807 329.368 188.105 329.372C188.3 329.379 188.491 329.432 188.661 329.526C188.832 329.621 188.979 329.754 189.088 329.915C189.213 329.765 189.37 329.645 189.547 329.564C189.725 329.483 189.918 329.443 190.113 329.447C190.289 329.452 190.462 329.494 190.621 329.57C190.779 329.645 190.921 329.752 191.037 329.884C191.153 330.016 191.241 330.171 191.294 330.338C191.348 330.506 191.367 330.682 191.35 330.857Z" fill="#4339B8"/>
</g>
<path d="M134.649 343.182C134.184 343.739 133.601 344.186 132.941 344.488C132.281 344.791 131.562 344.942 130.837 344.93C130.111 344.92 129.397 344.746 128.747 344.424C128.097 344.101 127.528 343.637 127.08 343.066C126.364 342.167 125.994 341.04 126.038 339.891C126.066 339.21 126.232 338.542 126.528 337.929C126.944 337.082 127.597 336.374 128.407 335.89C129.217 335.406 130.15 335.167 131.093 335.202C132.001 335.231 132.882 335.515 133.636 336.022C134.39 336.53 134.986 337.239 135.354 338.07C135.735 338.902 135.872 339.825 135.749 340.732C135.627 341.639 135.249 342.493 134.661 343.195L134.649 343.182Z" fill="white"/>
<g opacity="0.72">
<path opacity="0.72" d="M133.175 339.709C133.063 340.292 132.786 340.83 132.378 341.261C132.183 341.484 131.966 341.687 131.731 341.867C131.607 341.958 130.934 342.498 130.81 342.427C129.93 341.987 128.822 340.871 128.681 339.775C128.658 339.604 128.658 339.431 128.681 339.261C128.724 339.018 128.838 338.793 129.008 338.615C129.179 338.437 129.399 338.313 129.64 338.26C129.881 338.208 130.133 338.227 130.362 338.318C130.592 338.408 130.789 338.564 130.93 338.767C131.095 338.538 131.332 338.372 131.604 338.296C131.875 338.219 132.164 338.237 132.424 338.347C132.683 338.456 132.898 338.65 133.034 338.898C133.169 339.145 133.215 339.431 133.167 339.709H133.175Z" fill="#4339B8"/>
</g>
<path d="M188.637 354.299C188.051 355.184 187.192 355.854 186.191 356.207C185.19 356.56 184.101 356.577 183.09 356.256C182.078 355.935 181.199 355.292 180.586 354.426C179.972 353.56 179.658 352.517 179.69 351.457C179.721 350.606 179.971 349.778 180.416 349.054C180.758 348.508 181.204 348.035 181.729 347.662C182.254 347.29 182.849 347.025 183.477 346.883C184.105 346.741 184.755 346.726 185.389 346.836C186.024 346.947 186.63 347.183 187.173 347.529C187.715 347.875 188.184 348.326 188.552 348.855C188.92 349.383 189.179 349.979 189.316 350.609C189.452 351.238 189.462 351.889 189.345 352.522C189.229 353.155 188.988 353.759 188.637 354.299Z" fill="white"/>
<g opacity="0.72">
<path opacity="0.72" d="M186.832 351.253C186.72 351.838 186.444 352.378 186.035 352.81C185.839 353.032 185.623 353.235 185.387 353.415C185.263 353.507 184.591 354.042 184.466 353.976C183.586 353.532 182.478 352.419 182.337 351.324C182.315 351.153 182.315 350.98 182.337 350.809C182.38 350.566 182.494 350.341 182.665 350.163C182.835 349.985 183.055 349.862 183.296 349.809C183.537 349.756 183.789 349.776 184.018 349.866C184.248 349.956 184.446 350.113 184.587 350.316C184.751 350.087 184.988 349.922 185.259 349.846C185.529 349.769 185.818 349.787 186.078 349.896C186.337 350.005 186.551 350.198 186.687 350.445C186.822 350.691 186.871 350.976 186.823 351.253H186.832Z" fill="#4339B8"/>
</g>
<path d="M118.531 200.079L118.639 215.097C118.666 217.716 119.706 220.224 121.539 222.095C123.373 223.965 125.859 225.055 128.478 225.135L143.342 225.392C144.62 225.412 145.889 225.174 147.074 224.694C148.259 224.214 149.335 223.5 150.239 222.596C151.142 221.692 151.855 220.616 152.335 219.431C152.815 218.246 153.052 216.977 153.032 215.699L152.92 200.681C152.894 198.061 151.856 195.554 150.022 193.683C148.189 191.813 145.703 190.725 143.085 190.647L128.22 190.385C126.942 190.366 125.673 190.603 124.488 191.083C123.303 191.563 122.227 192.277 121.324 193.181C120.42 194.085 119.707 195.162 119.227 196.346C118.747 197.531 118.51 198.801 118.531 200.079Z" fill="white"/>
<path d="M120.817 203.847L120.896 214.719C120.92 216.994 121.823 219.17 123.415 220.794C125.008 222.418 127.166 223.364 129.44 223.433L142.35 223.658C143.46 223.675 144.562 223.468 145.591 223.051C146.62 222.635 147.555 222.016 148.341 221.231C149.126 220.446 149.746 219.512 150.164 218.483C150.582 217.454 150.789 216.352 150.774 215.242V214.507C148.96 210.798 145.429 205.245 141.644 208.565C136.212 213.337 133.727 209.706 130.56 205.021C127.917 201.1 123.896 198.236 120.817 203.847Z" fill="#4339B8"/>
<path d="M145.105 202.346C146.745 201.256 147.167 199.008 146.048 197.324C144.93 195.641 142.694 195.159 141.054 196.248C139.414 197.338 138.992 199.586 140.111 201.27C141.229 202.953 143.465 203.435 145.105 202.346Z" fill="#4339B8"/>
<path d="M204.878 206.154C202.555 206.153 200.289 206.872 198.391 208.211C196.492 209.549 195.055 211.443 194.276 213.632C193.497 215.82 193.415 218.197 194.04 220.434C194.666 222.671 195.969 224.66 197.77 226.127L168.307 286.177C168.125 286.149 167.942 286.131 167.759 286.123C167.289 286.13 166.822 286.202 166.373 286.339L147.205 262.524C148.061 261.343 148.546 259.934 148.598 258.476C148.649 257.019 148.265 255.579 147.495 254.34C146.725 253.102 145.604 252.121 144.273 251.522C142.943 250.923 141.465 250.735 140.028 250.98C138.59 251.225 137.258 251.893 136.201 252.898C135.144 253.904 134.411 255.201 134.095 256.625C133.779 258.048 133.894 259.534 134.425 260.892C134.957 262.25 135.881 263.419 137.08 264.25L123.647 302.478C122.476 302.548 121.365 303.021 120.504 303.817C119.642 304.613 119.082 305.684 118.92 306.846C118.758 308.007 119.003 309.19 119.614 310.192C120.225 311.194 121.163 311.953 122.271 312.341C123.378 312.729 124.585 312.722 125.688 312.321C126.79 311.919 127.72 311.149 128.319 310.14C128.918 309.131 129.149 307.946 128.973 306.786C128.796 305.625 128.224 304.562 127.353 303.776L140.786 265.545C140.952 265.545 141.114 265.57 141.28 265.57C142.278 265.57 143.267 265.367 144.184 264.972L163.348 288.779C162.944 289.512 162.73 290.333 162.725 291.17C162.706 291.848 162.823 292.522 163.069 293.154C163.315 293.786 163.685 294.362 164.158 294.849C164.63 295.335 165.196 295.721 165.82 295.986C166.445 296.25 167.116 296.386 167.794 296.386C168.472 296.386 169.144 296.25 169.768 295.986C170.393 295.721 170.958 295.335 171.431 294.849C171.904 294.362 172.274 293.786 172.52 293.154C172.766 292.522 172.883 291.848 172.863 291.17C172.86 290.042 172.477 288.949 171.776 288.066L201.239 228.015C202.788 228.56 204.437 228.76 206.071 228.6C207.705 228.44 209.284 227.924 210.698 227.089C212.112 226.254 213.325 225.12 214.254 223.766C215.182 222.411 215.803 220.871 216.073 219.251C216.342 217.631 216.254 215.972 215.814 214.39C215.375 212.809 214.594 211.342 213.527 210.094C212.461 208.846 211.134 207.847 209.639 207.166C208.145 206.485 206.52 206.14 204.878 206.154Z" fill="#D7E8F0"/>
<path d="M240.483 227.795H279.905" stroke="white" stroke-width="2" stroke-miterlimit="10"/>
<path d="M240.483 233.882H279.905" stroke="white" stroke-width="2" stroke-miterlimit="10"/>
<path d="M240.483 239.966H279.905" stroke="white" stroke-width="2" stroke-miterlimit="10"/>
<path d="M240.483 246.05H279.905" stroke="white" stroke-width="2" stroke-miterlimit="10"/>
<path d="M240.483 252.137H279.905" stroke="white" stroke-width="2" stroke-miterlimit="10"/>
<path d="M240.483 287.675H279.905" stroke="white" stroke-width="2" stroke-miterlimit="10"/>
<path d="M240.483 293.045H279.905" stroke="white" stroke-width="2" stroke-miterlimit="10"/>
<path d="M271.622 334.165C272.019 334.494 272.336 334.907 272.552 335.375C272.767 335.842 272.875 336.352 272.867 336.866L272.776 349.038C272.773 349.497 272.679 349.951 272.5 350.374C272.321 350.797 272.06 351.181 271.732 351.502C271.405 351.824 271.016 352.078 270.59 352.25C270.164 352.422 269.708 352.508 269.249 352.503L250.99 352.345C250.064 352.336 249.18 351.96 248.531 351.3C247.882 350.639 247.522 349.748 247.529 348.822L247.637 336.642C247.672 335.725 248.056 334.855 248.711 334.212C249.366 333.569 250.242 333.2 251.16 333.181L269.419 333.339C270.228 333.346 271.008 333.639 271.622 334.165Z" fill="white"/>
<path d="M269.041 336.389L260.525 343.705C260.417 343.797 260.278 343.848 260.135 343.848C259.993 343.848 259.854 343.797 259.745 343.705L251.076 336.235C250.981 336.154 250.913 336.046 250.882 335.925C250.851 335.803 250.859 335.676 250.905 335.559C250.951 335.443 251.032 335.344 251.137 335.276C251.243 335.208 251.367 335.175 251.491 335.181L268.675 335.335C268.796 335.339 268.913 335.379 269.01 335.451C269.107 335.523 269.18 335.622 269.22 335.736C269.26 335.85 269.264 335.974 269.231 336.091C269.2 336.207 269.133 336.311 269.041 336.389Z" fill="#4339B8"/>
<path d="M260.767 261.918C258.947 261.916 257.169 262.454 255.655 263.464C254.142 264.473 252.962 265.909 252.265 267.589C251.567 269.269 251.384 271.118 251.738 272.903C252.092 274.687 252.967 276.326 254.253 277.613C255.539 278.9 257.177 279.777 258.961 280.132C260.745 280.488 262.594 280.306 264.276 279.61C265.956 278.914 267.393 277.736 268.404 276.223C269.415 274.711 269.954 272.933 269.954 271.114C269.954 269.907 269.717 268.711 269.256 267.596C268.795 266.481 268.118 265.467 267.265 264.613C266.412 263.759 265.398 263.082 264.284 262.619C263.169 262.157 261.974 261.918 260.767 261.918ZM260.767 278.102C260.41 278.102 260.068 277.96 259.816 277.708C259.564 277.456 259.422 277.114 259.422 276.757C259.422 276.401 259.564 276.059 259.816 275.807C260.068 275.554 260.41 275.413 260.767 275.413C261.123 275.413 261.465 275.554 261.717 275.807C261.97 276.059 262.111 276.401 262.111 276.757C262.111 277.114 261.97 277.456 261.717 277.708C261.465 277.96 261.123 278.102 260.767 278.102ZM262.455 267.761C262.173 269.757 261.933 271.852 261.339 273.786C261.284 273.891 261.201 273.98 261.099 274.041C260.998 274.102 260.881 274.135 260.762 274.135C260.644 274.135 260.527 274.102 260.425 274.041C260.324 273.98 260.241 273.891 260.186 273.786C259.765 272.33 259.443 270.846 259.223 269.346C259.036 268.259 258.393 266.487 259.011 265.433C259.546 264.483 261.061 264.37 261.916 264.864C263.007 265.449 262.584 266.74 262.455 267.744V267.761Z" fill="white"/>
<path d="M205.041 225.878C209.602 225.878 213.299 222.181 213.299 217.62C213.299 213.059 209.602 209.362 205.041 209.362C200.48 209.362 196.783 213.059 196.783 217.62C196.783 222.181 200.48 225.878 205.041 225.878Z" fill="white"/>
<path d="M260.7 205.789C262.225 205.789 263.46 204.554 263.46 203.029C263.46 201.506 262.225 200.27 260.7 200.27C259.176 200.27 257.941 201.506 257.941 203.029C257.941 204.554 259.176 205.789 260.7 205.789Z" fill="white"/>
<path d="M252.993 215.508C252.993 213.464 253.806 211.503 255.25 210.059C256.696 208.613 258.656 207.802 260.699 207.802C262.743 207.802 264.704 208.613 266.148 210.059C267.594 211.503 268.405 213.464 268.405 215.508H252.993Z" fill="white"/>
<path d="M207.625 479.285C207.623 479.912 207.43 480.523 207.072 481.038C206.714 481.552 206.208 481.945 205.62 482.165L176.717 492.954C176.717 492.954 175.34 490.398 172.937 486.128L156.429 458.511C151.969 481.459 146.993 504.436 143.91 518.757L140.939 533.015L152.848 536.933C153.565 537.105 154.201 537.513 154.658 538.091C155.115 538.669 155.365 539.383 155.367 540.12C155.366 540.619 155.252 541.112 155.032 541.561C154.812 542.01 154.494 542.403 154.1 542.71C153.706 543.017 153.248 543.231 152.759 543.335C152.271 543.44 151.765 543.431 151.28 543.311L123.676 536.315V529.567L123.02 529.438L123.589 450.731L96.6154 444.352C93.2333 445.407 89.6604 446.373 86.0087 447.158C85.9697 447.163 85.9307 447.171 85.8925 447.183C77.0295 449.506 67.7715 449.905 58.7408 448.353C58.662 448.353 58.5707 448.315 58.496 448.299C57.8404 448.174 57.1847 448.029 56.5415 447.884C56.3465 447.847 56.1556 447.809 55.9605 447.755C55.3962 447.627 54.8318 447.461 54.2674 447.307C53.9562 447.216 53.6491 447.141 53.3545 447.05C53.0599 446.959 52.8399 446.884 52.5827 446.793C47.7225 445.267 43.2337 442.744 39.4031 439.385C36.4664 436.919 33.9761 433.966 32.0415 430.654C31.2116 429.343 30.4356 427.965 29.7135 426.55C25.3314 417.898 24.4185 414.956 25.6924 414.877C22.8872 413.889 20.1692 412.667 17.5673 411.225C17.5673 411.225 11.8324 377.758 24.3396 344.074C24.1006 341.991 24.1438 339.884 24.4683 337.812C27.1034 318.915 41.6066 299.49 58.911 291.622C68.1815 287.406 83.2989 280.936 78.4147 268.056C76.871 263.981 74.6799 260.47 74.265 256.241C74.2276 255.826 74.1778 255.457 74.1488 255.046C73.4558 245.087 79.2529 235.63 88.6396 232.223C91.7112 231.066 94.9941 230.579 98.269 230.794C101.544 231.009 104.735 231.92 107.629 233.468C108.628 233.995 109.525 234.698 110.276 235.543C113.131 235.617 116.717 236.119 118.401 236.904C121.256 238.24 123.543 240.58 125.253 243.215C128.406 248.127 129.673 254.015 128.817 259.789C128.326 262.985 127.188 266.046 125.473 268.786C124.627 270.159 123.645 271.443 122.543 272.62C121.576 273.633 120.202 275.11 118.879 275.654C118.894 275.665 118.912 275.672 118.931 275.672C118.95 275.672 118.968 275.665 118.982 275.654L118.596 281.824C126.522 280.019 147.698 272.583 163.223 241.879C164.343 239.501 165.497 237.136 166.708 234.796C170.294 227.828 174.136 220.898 179.228 214.906C180.473 213.454 182.315 212.142 184.295 212.773C186.029 213.325 187.2 215.263 185.992 216.89L177.659 228.276L180.319 227.932C180.609 228.002 180.881 228.134 181.114 228.32C181.348 228.506 181.538 228.74 181.671 229.007C181.805 229.274 181.878 229.566 181.888 229.864C181.896 230.162 181.84 230.459 181.722 230.733L180.037 234.733L180.834 233.795C181.382 233.148 182.159 232.738 183.003 232.65C183.847 232.563 184.692 232.805 185.361 233.325C186.03 233.847 186.472 234.606 186.595 235.445C186.717 236.284 186.51 237.139 186.017 237.829L181.627 243.502C181.039 244.251 180.292 244.86 179.44 245.286L170.75 249.477C173.32 252.636 175.71 255.938 177.908 259.366C173.137 268.511 167.544 277.203 161.198 285.335C150.5 299.116 135.096 314.52 116.289 320.96C115.874 332.351 113.862 343.639 110.737 354.681C120.493 354.681 129.801 354.681 139.212 354.681L146.308 335.318C146.634 334.425 147.227 333.654 148.007 333.109C148.787 332.564 149.715 332.272 150.666 332.273H179.029C179.523 332.274 180.012 332.37 180.469 332.555C181.164 332.842 181.759 333.329 182.178 333.953C182.596 334.578 182.82 335.313 182.822 336.065C182.817 336.526 182.73 336.983 182.564 337.414L180.685 342.302H180.622H172.626L169.372 351.623L170.298 349.27H174.298C174.925 349.27 175.541 349.425 176.094 349.72C176.646 350.016 177.117 350.444 177.464 350.965C177.811 351.487 178.023 352.086 178.083 352.71C178.143 353.334 178.047 353.962 177.805 354.54L174.398 362.69C173.371 365.144 171.742 367.3 169.662 368.959C167.582 370.617 165.118 371.725 162.496 372.18L162.135 372.243L161.467 374.218L161.812 373.537C161.7 373.807 161.571 374.102 161.455 374.425H170.426C170.426 374.425 168.435 380.235 164.77 380.584C164.475 380.607 164.177 380.597 163.882 380.555H145.292C146.333 381.712 147.503 383.115 148.752 384.762C154.147 384.684 161.994 385.26 163.936 389.028C164.271 389.403 164.576 389.802 164.849 390.223C165.592 391.468 165.837 394.373 165.658 398.569C165.711 402.895 165.348 407.217 164.575 411.474C165.516 413.239 166.421 415.014 167.289 416.798C169.178 420.328 170.882 423.955 172.393 427.662C172.446 427.761 172.489 427.863 172.522 427.969C177.052 438.357 181.027 448.979 184.428 459.789L184.619 460.458C187.191 468.043 189.287 474.936 190.084 479.131L203.57 476.368C204.033 476.214 204.526 476.173 205.007 476.246C205.489 476.32 205.947 476.507 206.342 476.791C206.738 477.076 207.061 477.45 207.284 477.884C207.506 478.317 207.623 478.797 207.625 479.285Z" fill="white"/>
<path d="M161.085 374.923H170.057C169.689 375.935 169.221 376.908 168.659 377.828C167.551 379.563 165.841 381.376 163.579 381.069H136.361C135.303 381.076 134.273 380.732 133.432 380.09C133.245 379.227 133.298 378.33 133.585 377.496C144.578 375.811 155.84 373.998 160.878 372.956L161.828 372.79L161.085 374.923Z" fill="#4339B8"/>
<path d="M182.454 336.613C182.449 337.074 182.361 337.531 182.196 337.962L180.321 342.846H172.32L169.033 352.224L167.838 355.22H141.761L147.803 338.763C148.131 337.87 148.725 337.099 149.505 336.554C150.285 336.009 151.214 335.717 152.165 335.717H180.524C181.018 335.718 181.507 335.813 181.964 335.999C182.123 336.064 182.278 336.137 182.429 336.219C182.441 336.343 182.454 336.484 182.454 336.613Z" fill="#4339B8"/>
<path d="M182.457 336.609C182.452 337.07 182.365 337.526 182.2 337.958L180.32 342.842H172.324L175.104 335.298C175.411 334.461 176.003 333.759 176.776 333.315C177.549 332.872 178.453 332.714 179.33 332.871C180.208 333.027 181.002 333.487 181.574 334.171C182.145 334.854 182.458 335.718 182.457 336.609Z" fill="#4339B8"/>
<path d="M170.054 374.923C170.054 374.923 167.481 382.484 162.808 380.857C159.904 379.857 160.339 376.965 161.099 374.907L170.054 374.923Z" fill="#4339B8"/>
<path d="M163.481 342.842H150.439" stroke="white" stroke-width="2" stroke-linecap="round" stroke-linejoin="round"/>
<path d="M161.875 347.755H148.832" stroke="white" stroke-width="2" stroke-linecap="round" stroke-linejoin="round"/>
<path d="M172.092 428.164C169.834 422.703 167.199 417.405 164.208 412.308C165.419 405.889 166.245 394.643 163.618 389.539C161.676 385.767 153.838 385.194 148.426 385.273C144.248 379.749 140.87 376.903 140.87 376.903C140.87 376.903 115.714 380.978 109.971 381.011C104.228 381.044 104.232 384.227 104.232 384.227C104.232 384.227 100.231 396.299 95.7082 402.295C91.185 408.291 79.018 415.574 61.4855 418.379C43.9529 421.184 30.1633 417.728 27.0012 415.968C23.8392 414.209 23.7354 415.906 29.3956 427.056C35.0559 438.207 43.7703 446.224 58.4064 448.867C67.4337 450.422 76.6892 450.023 85.5497 447.697C85.5497 447.697 108.709 441.858 115.502 437.406C122.296 432.953 123.358 439.007 123.358 439.007L122.694 529.961L140.621 533.538L156.107 459.038L172.623 486.675L189.782 479.621C187.762 469.01 177.383 441.028 172.092 428.164Z" fill="#2E2E2E"/>
<path d="M125.241 306.548C124.873 309.074 123.799 311.445 122.141 313.387C120.868 315.014 119.247 316.337 117.398 317.259C116.964 317.468 116.513 317.64 116.049 317.773C116.049 316.333 116.025 314.868 115.946 313.441C115.651 308.092 114.572 302.523 111.165 298.411C109.526 296.446 107.457 294.884 105.119 293.846C105.185 292.858 105.264 291.879 105.327 290.891C105.505 289.202 105.496 287.499 105.302 285.812C105.082 284.788 104.957 283.746 104.928 282.7C104.966 281.724 104.824 277.981 105.596 277.172C106.884 277.709 108.264 277.991 109.659 278.002C112.784 277.977 115.265 276.06 116.937 273.608C117.552 273.407 118.192 273.289 118.838 273.259C120.73 273.541 115.083 278.633 116.925 278.056C115.726 278.425 114.85 280.226 114.286 281.256C113.456 282.849 112.974 284.725 113.788 286.41C114.585 288.02 116.253 289.406 117.435 290.729C119.03 292.403 120.521 294.173 121.901 296.029C124.083 299.066 125.677 302.797 125.241 306.548Z" fill="#4339B8"/>
<path d="M96.5207 291.73C99.4919 291.914 102.407 292.628 105.127 293.838C107.464 294.877 109.531 296.438 111.169 298.402C114.576 302.519 115.655 308.084 115.95 313.433C116.029 314.873 116.066 316.338 116.053 317.765C115.991 330.43 113.883 342.962 110.422 355.216C121.17 355.216 131.366 355.216 141.753 355.216H167.838L169.033 352.224L169.987 349.818H174.013C174.64 349.818 175.257 349.972 175.809 350.268C176.362 350.564 176.833 350.992 177.181 351.514C177.528 352.036 177.741 352.636 177.801 353.26C177.861 353.884 177.765 354.513 177.523 355.092L174.116 363.242C173.086 365.694 171.456 367.849 169.376 369.507C167.295 371.165 164.831 372.272 162.211 372.728L161.85 372.795L160.9 372.961C155.862 374.002 144.599 375.816 133.607 377.5C123.552 379.057 113.717 380.496 109.065 381.165C107.302 381.422 105.501 381.613 103.671 381.729C92.8108 382.397 81.5983 379.982 78.6935 367.62C76.8012 359.702 77.2162 351.166 77.3033 342.925" stroke="black" stroke-width="2" stroke-miterlimit="10"/>
<path d="M148.513 385.63C155.543 385.306 161.842 386.348 164.544 390.746C165.905 392.971 165.573 400.814 164.17 411.752" stroke="black" stroke-width="2" stroke-miterlimit="10"/>
<path d="M30.7485 429.38C30.7634 429.399 30.7763 429.42 30.7858 429.442C33.7944 435.576 39.0853 440.871 45.8535 444.576C69.7019 457.623 105.572 442.336 118.474 435.974C118.988 435.72 119.559 435.603 120.132 435.631C120.705 435.66 121.262 435.835 121.749 436.138C122.236 436.442 122.637 436.865 122.915 437.367C123.193 437.869 123.338 438.434 123.337 439.007V536.846L150.937 543.838C151.364 543.947 151.809 543.97 152.245 543.903C152.681 543.836 153.1 543.682 153.474 543.449C153.85 543.217 154.173 542.91 154.427 542.549C154.68 542.188 154.858 541.78 154.95 541.348C155.131 540.509 154.978 539.633 154.521 538.907C154.063 538.18 153.34 537.663 152.506 537.464L140.6 533.542C141.152 529.675 149.227 494.307 156.091 459.042" stroke="black" stroke-width="2" stroke-miterlimit="10"/>
<path d="M140.338 376.442C147.393 382.418 152.459 391.605 157.203 399.411C168.76 418.429 177.403 439.128 184.118 460.308C186.147 466.707 188.014 473.172 189.778 479.637L203.256 476.87C204.021 476.621 204.853 476.682 205.574 477.039C206.295 477.395 206.847 478.02 207.113 478.779C207.379 479.538 207.338 480.371 206.998 481.1C206.658 481.829 206.046 482.396 205.294 482.679L176.391 493.469C176.391 493.469 167.934 477.671 156.115 459.026C138.794 431.671 106.788 389.51 98.3387 398.502" stroke="black" stroke-width="2" stroke-miterlimit="10"/>
<path d="M115.124 282.833C115.124 282.833 143.466 280.87 162.895 242.406C162.895 242.406 169.037 246.643 177.598 259.897C177.598 259.897 153.579 308.644 115.95 321.508" stroke="black" stroke-width="2" stroke-miterlimit="10"/>
<path d="M112.559 237.858L114.219 240.381L115.219 241.916C116.234 244.28 117.126 246.694 117.892 249.149L117.941 249.324L119.842 256.586C119.845 256.594 119.845 256.603 119.842 256.611C120.481 257.662 121.362 258.546 122.411 259.187C122.659 259.322 122.89 259.485 123.1 259.673C124.241 260.818 121.232 261.15 120.61 261.528C120.335 261.717 120.11 261.969 119.953 262.262C119.796 262.557 119.713 262.884 119.709 263.217C116.136 278.085 118.435 274.18 116.9 277.488C118.232 276.359 121.543 272.77 121.543 272.77C121.958 272.5 122.348 271.691 122.618 271.288C123.475 269.973 124.213 268.585 124.822 267.138C126.715 262.819 127.152 258.001 126.067 253.411C124.353 246.278 120.357 239.14 112.559 237.858Z" fill="#4339B8"/>
<path d="M112.219 242.344C111.915 243.887 111.183 245.313 110.107 246.46C108.938 247.738 107.577 248.826 106.073 249.685C103.243 251.37 100.094 252.644 97.7158 254.918C95.3351 257.207 93.9101 260.313 93.7279 263.611C93.562 266.989 94.7695 270.487 95.504 273.649C97.832 283.87 97.0851 293.693 95.7987 303.98C94.5786 313.686 91.9809 323.185 86.9431 331.634C81.0007 341.593 71.2447 349.564 60.2646 353.656C51.1352 357.063 33.3951 360.084 26.685 350.606C25.5272 347.614 25.5148 344.191 25.963 340.966C28.598 322.052 43.1013 302.639 60.4057 294.772C69.6761 290.555 84.7936 284.078 79.9094 271.193C78.3532 267.13 76.1746 263.624 75.7596 259.379C75.7223 258.993 75.6849 258.607 75.6476 258.196C74.9504 248.237 80.7476 238.783 90.1343 235.372C93.2051 234.213 96.4883 233.724 99.7637 233.939C103.039 234.153 106.231 235.067 109.123 236.617C110.15 237.164 111.07 237.892 111.837 238.767C111.89 238.826 111.937 238.89 111.978 238.958C112.037 239.105 112.084 239.256 112.12 239.41C112.349 240.372 112.383 241.369 112.219 242.344Z" fill="#4339B8"/>
<path d="M116.075 317.338C121.088 316.18 125.487 312.59 126.744 307.345C127.914 302.486 126.063 297.498 123.196 293.589C120.536 289.978 114.996 286.949 115.432 281.828C115.573 280.169 116.394 278.716 117.465 277.43C117.851 276.982 118.249 276.567 118.685 276.143" stroke="black" stroke-width="2" stroke-miterlimit="10"/>
<path d="M105.737 277.056L105.505 293.999" stroke="black" stroke-width="2" stroke-miterlimit="10"/>
<path d="M78.1006 268.562C76.5527 264.495 74.3658 260.989 73.9508 256.747C73.9093 256.357 73.872 255.967 73.8429 255.552C73.1416 245.593 78.943 236.144 88.3255 232.729C91.3971 231.57 94.6808 231.082 97.957 231.297C101.233 231.511 104.425 232.424 107.319 233.974C108.343 234.522 109.26 235.252 110.024 236.128L110.219 236.364C110.897 237.192 111.39 238.156 111.664 239.19C111.938 240.225 111.987 241.306 111.809 242.36C111.507 243.899 110.779 245.322 109.709 246.469C108.536 247.749 107.173 248.841 105.667 249.705C102.837 251.39 99.6916 252.656 97.3055 254.93C94.9236 257.226 93.5023 260.341 93.3301 263.644C93.1599 267.022 94.3716 270.516 95.0937 273.687C97.4217 283.907 96.6789 293.726 95.3925 304.009C94.1724 313.715 91.5789 323.218 86.5328 331.667C80.5904 341.626 70.8386 349.602 59.8542 353.689C50.5464 357.158 32.2959 360.229 25.8846 350.075C23.7309 346.668 23.5898 342.356 24.1459 338.364C26.7809 319.454 41.2925 300.033 58.5886 292.17C67.8756 287.904 82.9931 281.443 78.1006 268.562Z" stroke="black" stroke-width="2" stroke-miterlimit="10"/>
<path d="M113.735 257.063C114.626 257.063 115.349 256.34 115.349 255.449C115.349 254.557 114.626 253.834 113.735 253.834C112.843 253.834 112.12 254.557 112.12 255.449C112.12 256.34 112.843 257.063 113.735 257.063Z" fill="black"/>
<path d="M113.357 250.245C113.357 250.245 107.892 252.71 109.622 257.503" stroke="black" stroke-width="2" stroke-miterlimit="10"/>
<path d="M118.407 276.222C119.776 275.724 121.237 274.147 122.233 273.114C123.334 271.938 124.319 270.659 125.171 269.292C127.572 265.45 128.826 261.002 128.786 256.471C128.745 251.941 127.412 247.516 124.943 243.717C123.233 241.078 120.955 238.738 118.1 237.41C115.72 236.289 113.057 235.913 110.46 236.331C111.912 237.516 113.213 238.873 114.336 240.373C116.028 242.592 117.212 245.157 117.805 247.884C117.896 248.361 117.975 248.834 118.058 249.315C118.473 251.88 118.706 254.478 119.963 256.577C120.605 257.637 121.489 258.529 122.544 259.179C122.792 259.313 123.023 259.476 123.233 259.665C124.374 260.81 121.366 261.138 120.743 261.516C119.145 262.449 119.739 265.13 119.527 266.682C119.272 268.493 118.73 270.253 117.921 271.894C117.635 272.477 117.309 273.04 116.946 273.579C115.286 276.04 112.796 277.965 109.667 277.982C108.275 277.969 106.898 277.687 105.613 277.152C103.409 276.256 101.437 274.869 99.8492 273.097" stroke="black" stroke-width="2" stroke-miterlimit="10"/>
<path d="M115.403 267.636C115.403 267.636 111.639 269.782 110.008 264.844" stroke="black" stroke-width="2" stroke-miterlimit="10"/>
<path d="M169.747 250.349L179.125 245.817C179.983 245.404 180.732 244.796 181.312 244.041L185.69 238.36C186.195 237.67 186.41 236.812 186.292 235.966C186.174 235.12 185.731 234.353 185.057 233.828C184.383 233.302 183.531 233.061 182.682 233.153C181.833 233.246 181.053 233.665 180.507 234.322L179.706 235.256L181.395 231.26C181.51 230.985 181.564 230.689 181.555 230.392C181.545 230.094 181.471 229.802 181.338 229.536C181.206 229.269 181.017 229.034 180.786 228.847C180.554 228.66 180.285 228.525 179.997 228.451L177.329 228.803L185.67 217.412C186.852 215.798 185.703 213.848 183.972 213.296C181.981 212.661 180.138 213.972 178.901 215.425C173.814 221.417 169.959 228.347 166.378 235.318C165.174 237.662 164.013 240.024 162.896 242.406" stroke="black" stroke-width="2" stroke-linejoin="round"/>
<path d="M177.333 228.803C177.333 228.803 171.893 235.571 179.711 235.256" stroke="black" stroke-width="2" stroke-miterlimit="10"/>
<path d="M162.186 372.724C162.186 372.724 158.152 379.268 162.85 380.874C167.547 382.48 170.116 374.928 170.116 374.928H161.049" stroke="black" stroke-width="2" stroke-miterlimit="10"/>
<path d="M163.629 381.065H144.922" stroke="black" stroke-width="2" stroke-miterlimit="10"/>
<path d="M182.515 336.609C182.509 337.07 182.422 337.526 182.257 337.958L180.382 342.842H172.385L175.161 335.298C175.468 334.461 176.061 333.759 176.833 333.315C177.606 332.872 178.511 332.714 179.388 332.871C180.265 333.027 181.059 333.487 181.631 334.171C182.203 334.854 182.515 335.718 182.515 336.609Z" stroke="black" stroke-width="2" stroke-miterlimit="10"/>
<path d="M143.47 342.842L138.905 355.212L145.989 335.862C146.317 334.967 146.912 334.195 147.693 333.651C148.475 333.105 149.406 332.814 150.358 332.816H178.718" stroke="black" stroke-width="2" stroke-miterlimit="10"/>
<path d="M167.846 355.212L172.386 342.842" stroke="black" stroke-width="2" stroke-miterlimit="10"/>
<path d="M24.037 344.593C11.5256 378.276 17.2605 411.752 17.2605 411.752C36.1583 422.267 62.9531 421.355 82.1456 412.113C88.9345 408.835 96.2546 403.897 99.2176 396.659C101.392 391.36 103.654 386.103 105.517 380.729" stroke="black" stroke-width="2" stroke-miterlimit="10"/>
<path d="M13.2482 449.689H123.353" stroke="black" stroke-width="2" stroke-miterlimit="10"/>
<path d="M110.431 355.224L109.245 359.237" stroke="black" stroke-width="2" stroke-miterlimit="10"/>
<path d="M30.7853 429.442C30.7853 429.442 25.9385 420.794 24.3616 415.039" stroke="black" stroke-width="2" stroke-miterlimit="10"/>
<path d="M54.7073 185.053V271.11H22.3726C23.4379 267.704 24.33 264.26 25.0492 260.777C27.2568 250.054 27.9125 238.983 27.5681 227.799C26.9249 206.341 35.6808 194.527 47.3125 188.24C49.6782 186.961 52.1531 185.894 54.7073 185.053Z" stroke="#CCDDE2" stroke-width="2" stroke-miterlimit="10"/>
<path d="M47.3133 188.24V260.777H25.0376C27.2453 250.054 27.9009 238.983 27.5565 227.799C26.9257 206.341 35.6816 194.535 47.3133 188.24Z" stroke="#CCDDE2" stroke-width="2" stroke-miterlimit="10"/>
</svg>
