<svg width="341" height="337" viewBox="0 0 341 337" fill="none" xmlns="http://www.w3.org/2000/svg">
<path d="M174.059 33.7602L169.074 31.6237H166.938L165.513 33.7602V36.6089L169.074 39.4576L169.786 43.7307L165.513 50.8525L161.952 57.9743L159.816 67.2326L161.24 71.5057L166.225 77.9153L170.498 80.764H177.62L180.469 76.4909L179.757 72.93L178.332 68.657V50.1403L181.893 51.5647L185.454 49.4281L189.015 41.5942L191.864 40.882L188.303 33.048L186.879 26.6384L185.454 27.3506L179.757 32.3359L174.059 33.7602Z" fill="#D8E6EB"/>
<path d="M128.48 83.6127L118.509 85.0371L105.69 97.1441L97.8563 108.539C95.9571 112.575 92.0164 122.07 91.4467 127.768C90.7345 134.89 95.7198 144.148 97.1441 146.997C98.2836 149.276 107.115 155.543 111.388 158.391L119.934 145.572C122.213 142.154 128.48 140.35 131.329 139.875L129.904 137.738L128.48 129.904L144.148 110.675V106.402V101.417L138.45 92.1588L128.48 83.6127Z" fill="#D8E6EB"/>
<path d="M174.772 144.148L177.62 149.845V152.694L174.772 159.816L166.225 162.664C161.715 163.377 150.7 164.801 142.724 164.801C134.747 164.801 125.631 162.902 122.07 161.952V160.528L129.192 146.284L137.026 142.723L143.436 144.86L156.967 146.997L161.24 140.587L166.938 137.738L173.347 138.45L176.196 140.587L174.772 142.723V144.148Z" fill="#D8E6EB"/>
<path d="M120.646 162.664L169.074 169.786L181.181 258.809L162.665 241.716L153.68 234.582C151.612 241.183 147.69 252.966 145.572 256.672C142.724 261.657 137.738 274.476 129.904 278.037C122.07 281.598 115.661 283.735 107.827 281.598C101.56 279.889 84.3249 265.218 76.4909 258.096L46.5794 232.458L23.7897 212.517L31.6237 194L67.9448 213.941L64.3839 233.17L134.177 250.262L140.817 224.367L138.45 222.487L146.284 181.893L119.222 172.635L120.646 162.664Z" fill="#D8E6EB"/>
<path d="M255.248 302.251L216.078 296.554L243.141 327.89L269.491 323.617L255.248 302.251Z" fill="#D8E6EB"/>
<path d="M97.5215 108.737H67.7275C66.8982 108.737 66.0769 108.574 65.3107 108.256C64.5449 107.938 63.8487 107.473 63.2629 106.886C62.6767 106.299 62.212 105.603 61.8954 104.836C61.5789 104.07 61.4164 103.248 61.4176 102.419V30.7858C61.4176 29.9573 61.581 29.1368 61.8979 28.3714C62.2152 27.6064 62.68 26.9111 63.2658 26.3253C63.852 25.7395 64.5473 25.2751 65.3131 24.9586C66.0786 24.6421 66.899 24.4791 67.7275 24.48H116.916C117.745 24.4771 118.568 24.6384 119.336 24.9537C120.103 25.2694 120.801 25.7334 121.389 26.3192C121.977 26.9049 122.444 27.6011 122.762 28.3673C123.081 29.134 123.245 29.9556 123.246 30.7858V50.1067" stroke="#CCDDE2" stroke-miterlimit="10"/>
<path d="M115.421 33.1606H69.867C68.1235 33.1606 66.71 34.5742 66.71 36.3176V44.8232C66.71 46.5667 68.1235 47.9802 69.867 47.9802H115.421C117.165 47.9802 118.578 46.5667 118.578 44.8232V36.3176C118.578 34.5742 117.165 33.1606 115.421 33.1606Z" stroke="#CCDDE2" stroke-miterlimit="10"/>
<path d="M92.3232 39.4014C93.1692 39.4014 93.8548 38.7154 93.8548 37.8697C93.8548 37.0237 93.1692 36.3381 92.3232 36.3381C91.4775 36.3381 90.7915 37.0237 90.7915 37.8697C90.7915 38.7154 91.4775 39.4014 92.3232 39.4014Z" fill="#D8E6EB"/>
<path d="M88.0423 44.807C88.006 44.2232 88.0899 43.6383 88.2887 43.0879C88.4871 42.5376 88.7963 42.0337 89.1971 41.6076C89.598 41.1815 90.0815 40.8418 90.6184 40.6096C91.1557 40.3774 91.7341 40.2576 92.3195 40.2576C92.9045 40.2576 93.4833 40.3774 94.0202 40.6096C94.5571 40.8418 95.0406 41.1815 95.4415 41.6076C95.8423 42.0337 96.1515 42.5376 96.3503 43.0879C96.5487 43.6383 96.6326 44.2232 96.5967 44.807H88.0423Z" fill="#D8E6EB"/>
<path d="M92.6377 63.863C91.0046 63.863 89.4082 64.3474 88.0501 65.2546C86.6923 66.1621 85.634 67.4514 85.0091 68.9603C84.3843 70.4691 84.2205 72.1295 84.5391 73.7312C84.8576 75.3329 85.6442 76.8039 86.7991 77.9587C87.9539 79.1136 89.4249 79.9002 91.0266 80.2188C92.6283 80.5373 94.2887 80.3735 95.7975 79.7487C97.3064 79.1238 98.5957 78.0655 99.5032 76.7078C100.41 75.3496 100.895 73.7532 100.895 72.1201C100.895 71.0357 100.682 69.962 100.267 68.9599C99.8524 67.9578 99.2442 67.0473 98.4775 66.2803C97.7105 65.5136 96.8 64.9055 95.798 64.4904C94.7963 64.0757 93.7221 63.8626 92.6377 63.863ZM92.6377 78.3812C92.3517 78.3339 92.0922 78.1869 91.9049 77.9661C91.7175 77.7453 91.6144 77.465 91.6144 77.1754C91.6144 76.8858 91.7175 76.6055 91.9049 76.3847C92.0922 76.1639 92.3517 76.0169 92.6377 75.9696C92.8124 75.9407 92.9917 75.9505 93.1628 75.9977C93.3334 76.045 93.4919 76.1289 93.6272 76.2438C93.7624 76.3582 93.8712 76.5012 93.9457 76.6621C94.0198 76.823 94.0585 76.9982 94.0585 77.1754C94.0585 77.3526 94.0198 77.5282 93.9457 77.6891C93.8712 77.85 93.7624 77.9926 93.6272 78.1074C93.4919 78.2219 93.3334 78.3058 93.1628 78.3531C92.9917 78.4007 92.8124 78.4101 92.6377 78.3812ZM94.1653 69.0975C93.9685 70.9237 93.632 72.7324 93.1591 74.5072C93.1094 74.6021 93.0344 74.6812 92.9432 74.7366C92.8515 74.792 92.7464 74.8213 92.6397 74.8213C92.5326 74.8213 92.4279 74.792 92.3362 74.7366C92.2446 74.6812 92.17 74.6021 92.1203 74.5072C91.7435 73.1988 91.4547 71.8663 91.2568 70.5192C91.0897 69.5416 90.5194 67.9529 91.0653 66.9997C91.546 66.1483 92.9065 66.0465 93.6927 66.4905C94.6582 67.0404 94.2793 68.2054 94.1653 69.0975Z" fill="#D8E6EB"/>
<path d="M71.8955 54.5957H112.228" stroke="#CCDDE2" stroke-miterlimit="10"/>
<path d="M71.8955 58.5674H112.228" stroke="#CCDDE2" stroke-miterlimit="10"/>
<path d="M71.8955 84.129H112.228" stroke="#CCDDE2" stroke-miterlimit="10"/>
<path d="M81.2647 87.8848H102.859" stroke="#CCDDE2" stroke-miterlimit="10"/>
<path d="M321.062 93.4288H259.238C254.091 93.4288 249.918 97.6018 249.918 102.749V208.34C249.918 213.487 254.091 217.66 259.238 217.66H321.062C326.21 217.66 330.383 213.487 330.383 208.34V102.749C330.383 97.6018 326.21 93.4288 321.062 93.4288Z" fill="#4339B8"/>
<path d="M236.552 93.4288H193.503C188.356 93.4288 184.183 97.6018 184.183 102.749V208.34C184.183 213.487 188.356 217.66 193.503 217.66H236.552C241.7 217.66 245.873 213.487 245.873 208.34V102.749C245.873 97.6018 241.7 93.4288 236.552 93.4288Z" fill="#4339B8"/>
<path d="M187.748 280.833H329.939C332.396 280.831 334.752 279.855 336.489 278.118C338.227 276.381 339.204 274.026 339.206 271.569V95.0664C339.207 93.8492 338.967 92.6439 338.502 91.5192C338.036 90.3945 337.354 89.3728 336.493 88.5121C335.632 87.6513 334.611 86.969 333.486 86.5034C332.361 86.0378 331.156 85.7983 329.939 85.7991H233.306L208.05 85.9498H207.977L195.206 86.4468H195.166L191.805 86.5771H191.508L191.259 88.5772L190.77 92.2964C190.776 92.3033 190.778 92.3119 190.778 92.3208C190.778 92.3294 190.776 92.3383 190.77 92.3453L186.795 98.2356L185.98 99.4292L183.735 113.793V113.862C183.686 113.841 183.637 113.813 183.576 113.78C183.527 113.752 183.481 113.719 183.438 113.683C182.683 113.114 182.115 112.332 181.808 111.438C181.063 109.548 180.884 107.043 180.876 105.055L180.387 115.968V116.009L179.707 130.588L179.54 134.502C179.857 133.936 180.313 133.122 180.843 132.148L179.153 142.951L178.802 150.736L177.93 170.407L177.898 171.14V171.421L177.67 176.212V176.322C177.67 176.322 177.018 190.379 177.018 190.4L176.957 191.703L176.203 197.394L174.004 213.318V271.569C174.004 273.229 174.451 274.858 175.299 276.285C176.146 277.712 177.361 278.885 178.818 279.68C181.576 281.175 184.627 280.975 187.658 280.873C188.473 280.849 189.288 280.812 190.102 280.767" fill="#4339B8"/>
<path d="M182.349 277.794C182.292 277.794 182.231 277.741 182.162 277.72C181.387 277.443 180.655 277.059 179.986 276.58C178.813 275.746 177.857 274.642 177.198 273.362C176.54 272.082 176.198 270.663 176.202 269.223V191.483L174.002 192.538L173.864 192.608L173.567 191.87L172.096 188.204L171.689 187.19L167.969 177.906C167.969 177.906 175.033 149.326 179.705 130.588C181.416 123.708 182.809 118.151 183.396 115.817C183.575 115.12 183.681 114.713 183.702 114.644C183.703 114.628 183.703 114.611 183.702 114.595C183.714 114.456 183.693 114.317 183.64 114.188C183.583 114.037 183.513 113.891 183.433 113.752C183.423 113.723 183.409 113.695 183.392 113.67C182.908 112.846 182.363 112.059 181.763 111.316L180.989 101.731L181.115 101.633L181.701 101.164L185.71 97.9871L186.643 95.5186L188.472 90.7199L189.286 88.5813H191.225H191.722H195.23L208.192 88.5406H209.304L233.896 88.3939H327.991C329.176 88.3939 330.349 88.6273 331.444 89.0811C332.538 89.5349 333.532 90.2001 334.37 91.0385C335.207 91.8768 335.871 92.872 336.323 93.9673C336.775 95.0623 337.007 96.2359 337.006 97.4209V269.223C337.007 270.408 336.775 271.581 336.323 272.676C335.871 273.771 335.207 274.767 334.37 275.605C333.532 276.444 332.538 277.109 331.444 277.563C330.349 278.016 329.176 278.25 327.991 278.25H187.918" fill="#4339B8"/>
<path d="M191.764 86.0394L195.096 86.019H195.165L207.956 85.9498H208.046L233.302 85.7991H329.938C332.396 85.7999 334.753 86.7767 336.49 88.5145C338.228 90.2523 339.205 92.6088 339.206 95.0664V271.569C339.204 274.026 338.226 276.381 336.489 278.118C334.751 279.855 332.395 280.831 329.938 280.833H183.018C180.624 280.833 178.328 279.881 176.635 278.188C174.942 276.495 173.991 274.2 173.991 271.806V252.534" stroke="black" stroke-miterlimit="10"/>
<path d="M321.062 226.785H193.503C188.356 226.785 184.183 230.958 184.183 236.105V262.017C184.183 267.165 188.356 271.337 193.503 271.337H321.062C326.209 271.337 330.382 267.165 330.382 262.017V236.105C330.382 230.958 326.209 226.785 321.062 226.785Z" fill="#D8E6EB"/>
<path d="M278.889 236.708H196.489C194.746 236.708 193.332 238.121 193.332 239.865V258.897C193.332 260.64 194.746 262.054 196.489 262.054H278.889C280.632 262.054 282.046 260.64 282.046 258.897V239.865C282.046 238.121 280.632 236.708 278.889 236.708Z" fill="#4339B8"/>
<path d="M304.425 236.712C301.871 236.71 299.373 237.465 297.247 238.882C295.122 240.3 293.465 242.316 292.486 244.676C291.507 247.035 291.25 249.633 291.747 252.138C292.244 254.644 293.473 256.946 295.279 258.753C297.085 260.56 299.386 261.791 301.892 262.289C304.397 262.788 306.994 262.533 309.355 261.555C311.715 260.578 313.732 258.922 315.151 256.798C316.57 254.673 317.327 252.176 317.326 249.621C317.327 247.926 316.993 246.248 316.345 244.682C315.698 243.116 314.747 241.693 313.549 240.494C312.351 239.296 310.929 238.345 309.364 237.696C307.798 237.047 306.12 236.712 304.425 236.712ZM304.425 259.414C304.17 259.426 303.915 259.385 303.675 259.296C303.436 259.207 303.217 259.069 303.032 258.893C302.848 258.717 302.7 258.504 302.6 258.269C302.499 258.034 302.447 257.781 302.447 257.526C302.447 257.27 302.499 257.017 302.6 256.782C302.7 256.547 302.848 256.335 303.032 256.158C303.217 255.982 303.436 255.845 303.675 255.755C303.915 255.666 304.17 255.626 304.425 255.638C304.911 255.66 305.369 255.869 305.705 256.221C306.04 256.572 306.228 257.039 306.228 257.526C306.228 258.012 306.04 258.479 305.705 258.831C305.369 259.183 304.911 259.391 304.425 259.414ZM306.8 244.892C306.393 247.694 306.063 250.635 305.228 253.348C305.04 254.004 303.806 254.004 303.598 253.348C303.006 251.304 302.554 249.222 302.246 247.116C301.985 245.588 301.093 243.103 301.948 241.621C302.702 240.289 304.828 240.13 306.051 240.806C307.574 241.67 306.963 243.499 306.8 244.892Z" fill="#4339B8"/>
<path d="M318.137 183.234C317.511 188.632 315.277 193.716 311.724 197.828C308.172 201.939 303.465 204.887 298.215 206.29C292.966 207.692 287.416 207.483 282.287 205.691C277.157 203.899 272.685 200.605 269.451 196.239C266.218 191.872 264.372 186.634 264.153 181.205C263.934 175.776 265.352 170.406 268.224 165.794C271.097 161.181 275.289 157.539 280.258 155.34C285.226 153.14 290.741 152.486 296.087 153.461C296.322 153.506 296.545 153.599 296.742 153.734C296.94 153.869 297.108 154.043 297.236 154.245C297.364 154.447 297.449 154.674 297.486 154.91C297.523 155.147 297.511 155.388 297.451 155.62L296.918 157.701L292.135 176.375C292.059 176.672 292.062 176.985 292.145 177.281C292.228 177.577 292.387 177.846 292.607 178.061C292.826 178.276 293.098 178.43 293.396 178.506C293.694 178.583 294.006 178.58 294.302 178.497L312.866 173.307L315.403 172.598C315.629 172.535 315.866 172.517 316.099 172.547C316.332 172.577 316.557 172.653 316.759 172.771C316.962 172.889 317.139 173.047 317.28 173.235C317.421 173.423 317.522 173.638 317.579 173.865C318.309 176.932 318.498 180.103 318.137 183.234Z" fill="#D8E6EB"/>
<path d="M318.776 163.991C318.864 164.218 318.903 164.462 318.89 164.706C318.878 164.949 318.815 165.188 318.705 165.406C318.595 165.623 318.44 165.815 318.251 165.969C318.062 166.124 317.842 166.236 317.607 166.301L315.859 166.789L300.742 171.014C300.446 171.096 300.134 171.099 299.836 171.023C299.538 170.946 299.266 170.793 299.047 170.578C298.827 170.363 298.668 170.093 298.585 169.798C298.502 169.502 298.499 169.189 298.575 168.891L302.482 153.689L302.857 152.231C302.916 151.999 303.022 151.781 303.168 151.592C303.315 151.403 303.499 151.247 303.708 151.132C303.919 151.017 304.15 150.947 304.388 150.926C304.626 150.905 304.866 150.933 305.093 151.008C308.169 152.07 310.981 153.778 313.341 156.017C315.701 158.257 317.554 160.975 318.776 163.991Z" fill="#D8E6EB"/>
<path d="M290.848 117.723C294.961 117.723 298.295 114.39 298.295 110.277C298.295 106.165 294.961 102.831 290.848 102.831C286.736 102.831 283.402 106.165 283.402 110.277C283.402 114.39 286.736 117.723 290.848 117.723Z" fill="#D8E6EB"/>
<path d="M318.317 126.734H264.11V128.225H318.317V126.734Z" fill="#D8E6EB"/>
<path d="M318.317 132.25H264.11V133.741H318.317V132.25Z" fill="#D8E6EB"/>
<path d="M318.317 137.276H264.11V138.767H318.317V137.276Z" fill="#D8E6EB"/>
<path d="M236.38 157.881H193.918V159.372H236.38V157.881Z" fill="#D8E6EB"/>
<path d="M236.38 163.897H193.918V165.388H236.38V163.897Z" fill="#D8E6EB"/>
<path d="M236.38 169.91H193.918V171.401H236.38V169.91Z" fill="#D8E6EB"/>
<path d="M236.38 175.927H193.918V177.417H236.38V175.927Z" fill="#D8E6EB"/>
<path d="M236.38 181.943H193.918V183.434H236.38V181.943Z" fill="#D8E6EB"/>
<path d="M188.094 115.516C188.094 115.516 200.999 135.839 215.704 142.226C230.41 148.613 235.005 151.436 240.63 149.151C246.256 146.866 257.055 143.664 264.664 121.043C272.274 98.423 275.899 86.516 276.168 81.0371C276.437 75.5582 261.308 80.0595 261.308 80.0595C261.308 80.0595 253.16 104.073 235.31 114.791L209.887 87.9377L188.094 115.516Z" fill="#D8E6EB"/>
<path d="M173.013 146.748L183.401 149.566C183.401 149.566 171.339 166.199 182.064 183.613C192.79 201.028 214.877 236.162 214.877 236.162L257.152 303.376L217.614 297.864L188.093 265.528L173.021 250.501L154.132 191.536L173.013 146.748Z" fill="#D8E6EB"/>
<path d="M3.40688 232.7C4.34087 233.205 5.42203 233.368 6.46339 233.16C7.50476 232.953 8.44102 232.388 9.1099 231.563L24.4835 212.715L36.8874 197.146L26.7321 191.443C25.6803 190.849 24.4354 190.696 23.2716 191.019C22.1074 191.342 21.1191 192.114 20.524 193.166L1.59823 226.406C1.29674 226.936 1.10427 227.521 1.03213 228.127C0.959983 228.733 1.00964 229.347 1.17812 229.933C1.3466 230.519 1.63057 231.066 2.01328 231.541C2.39603 232.016 2.86983 232.41 3.40688 232.7Z" fill="#2E2E2E"/>
<path d="M237.416 321.605L250.211 334.192C251.315 335.281 252.803 335.892 254.353 335.895H286.351C287.344 335.899 288.316 335.614 289.149 335.075C289.982 334.535 290.641 333.765 291.044 332.858C291.447 331.951 291.577 330.946 291.419 329.967C291.26 328.987 290.82 328.074 290.152 327.34C289.31 326.4 288.148 325.807 286.893 325.678L269.144 323.857L237.416 321.605Z" fill="#2E2E2E"/>
<path d="M120.571 164.17C120.571 164.17 145.318 171.054 161.815 173.108C178.313 175.161 177.156 168.317 177.156 168.317L179.173 159.673C184.469 151.045 187.544 132.69 187.544 132.69L189.67 118.331L192.774 123.793L202.808 133.9L202.93 133.997C202.624 129.17 202.857 122.388 203.981 113.149C206.572 91.7628 215.15 94.2436 215.15 94.2436L213.892 92.8627C207.965 83.0006 189.043 72.5764 182.998 70.0834C176.953 67.5904 179.54 71.1221 180.309 73.7496C181.079 76.377 178.88 83.7705 170.069 80.0065C161.257 76.2426 160.813 68.0547 160.813 68.0547H156.719C131.606 71.0733 118.835 84.4671 118.835 84.4671C145.513 90.7607 139.391 113.389 139.391 113.389L136.971 115.601C127.5 123.814 126.84 131.733 127.659 135.032C128.478 138.332 134.319 142.772 144.865 145.346C155.412 147.921 157.331 147.925 159.714 143.367C162.097 138.808 164.875 138.246 168.675 137.562C172.476 136.877 177.132 139.578 176.069 141.705C175.006 143.831 174.236 141.973 176.884 147.717C179.531 153.461 178.301 156.382 171.181 161.673C164.06 166.965 132.4 163.995 132.4 163.995C117.259 159.807 120.571 164.17 120.571 164.17Z" fill="#2E2E2E"/>
<path d="M178.452 68.1891V69.0568V69.2767C185.53 71.0459 192.196 74.1752 198.078 78.4911C199.032 79.1877 199.96 79.8965 200.877 80.642C200.901 77.6479 200.645 74.6416 199.679 71.8064C198.897 69.3737 197.423 67.2208 195.439 65.6105C193.691 64.2174 191.626 63.3253 189.548 62.5187C187.471 61.7121 185.43 61.0034 183.524 59.9157C181.917 59.0371 180.514 57.8292 179.405 56.3717C179.017 55.8446 178.774 55.2242 178.702 54.5732C178.631 53.9223 178.733 53.264 178.998 52.6648C178.81 52.6522 178.625 52.6151 178.448 52.5548L178.452 68.1891Z" fill="#4339B8"/>
<path d="M178.452 68.1891V69.0568V69.2767C185.53 71.0459 192.196 74.1752 198.078 78.4911C199.032 79.1877 199.96 79.8965 200.877 80.642C200.901 77.6479 200.645 74.6416 199.679 71.8064C198.897 69.3737 197.423 67.2208 195.439 65.6105C193.691 64.2174 191.626 63.3253 189.548 62.5187C187.471 61.7121 185.43 61.0034 183.524 59.9157C181.917 59.0371 180.514 57.8292 179.405 56.3717C179.017 55.8446 178.774 55.2242 178.702 54.5732C178.631 53.9223 178.733 53.264 178.998 52.6648C178.81 52.6522 178.625 52.6151 178.448 52.5548L178.452 68.1891Z" fill="#4339B8"/>
<path d="M80.6574 135.818C83.317 137.721 86.2736 139.171 89.4074 140.108C90.7553 140.523 92.1244 140.866 93.5094 141.134C88.0387 128.241 92.1326 111.279 109.396 93.1926C112.352 90.0906 115.499 87.1764 118.818 84.4671C124.183 80.1043 128.949 76.8536 134.571 74.2384C137.087 73.077 139.672 72.0692 142.311 71.2199C146.989 69.6626 151.818 68.6018 156.719 68.0547C157.831 67.9203 158.931 67.8225 160.043 67.7614C159.771 65.8514 159.825 63.9095 160.202 62.0177C161.228 56.824 163.016 53.838 166.267 49.7441C168.304 47.1656 171.485 41.0064 167.245 38.88C164.568 37.5479 164.324 34.8064 165.583 33.177C166.646 31.7594 168.797 31.1117 171.449 32.7696C173.282 33.9428 175.457 34.0161 177.559 33.4418C179.191 32.4906 180.607 31.2087 181.714 29.6778C184.794 25.2662 184.904 18.5815 180.085 15.343C177.457 13.571 174.109 13.1433 170.968 13.4854C169.561 13.6398 168.176 13.9429 166.833 14.3898C166.827 14.3873 166.821 14.3857 166.815 14.3857C166.809 14.3857 166.802 14.3873 166.797 14.3898C161.094 17.4572 157.041 23.1275 155.085 29.5189C153.937 33.2951 152.641 37.0346 151.126 40.7008C149.879 43.7071 149.012 47.3611 146.237 49.4142C145.078 50.2716 143.762 50.8945 142.364 51.2473C137.121 54.5713 129.85 52.6526 124.118 51.9438C119.536 51.3173 114.87 51.7862 110.504 53.3125C105.616 55.7852 101.412 59.7325 98.0026 64.8652C92.3688 73.3585 98.3325 85.6036 88.9104 92.3005C86.0589 94.3169 82.8001 95.539 79.6838 97.1032C75.2355 99.3641 71.6426 102.578 70.3146 107.527C67.6913 117.512 72.3596 129.793 80.6574 135.818Z" fill="#4339B8"/>
<path d="M311.038 335.895H88.1168" stroke="black" stroke-miterlimit="10"/>
<path d="M186.627 25.6572C187.199 26.8442 187.689 28.0691 188.093 29.3234C188.68 31.3602 188.044 32.623 188.936 34.5661C189.242 35.2382 189.682 36.3747 190.159 37.5234C190.293 37.2546 190.415 37.0346 190.488 36.8635C193.984 29.079 189.389 25.3272 187.177 24.0441C187.036 24.5956 186.852 25.135 186.627 25.6572Z" fill="#4339B8"/>
<path d="M186.627 25.6572C187.199 26.8442 187.689 28.0691 188.093 29.3234C188.68 31.3602 188.044 32.623 188.936 34.5661C189.242 35.2382 189.682 36.3747 190.159 37.5234C190.293 37.2546 190.415 37.0346 190.488 36.8635C193.984 29.079 189.389 25.3272 187.177 24.0441C187.036 24.5956 186.852 25.135 186.627 25.6572Z" fill="#4339B8"/>
<path d="M109.181 156.984C107.046 173.816 108.773 203.016 143.244 225.355C149.448 229.376 155.033 235.054 160.503 239.963C175.424 253.447 189.619 267.713 203.027 282.702C211.235 291.803 219.615 301.367 227.937 310.582C232.203 315.291 236.516 319.956 240.875 324.579C244.085 327.964 249.177 335.891 254.338 335.891H286.054C288.906 335.891 291.497 333.557 291.456 330.693C291.433 329.455 290.964 328.268 290.136 327.349C289.295 326.408 288.133 325.815 286.877 325.687L269.129 323.866L183.376 187.491C178.953 180.452 175.03 168.867 178.452 161.278C191.487 132.413 190.367 104.436 190.367 104.436" stroke="black" stroke-miterlimit="10"/>
<path d="M153.578 234.129C149.838 247.266 143.801 260.607 138.815 269.007C137.009 272.074 134.627 274.763 131.801 276.926C121.584 284.751 107.143 283.916 97.3466 275.578L48.6228 234.105L24.4871 212.715L9.11347 231.563C8.38634 232.447 7.35431 233.027 6.22084 233.187C5.08742 233.348 3.93497 233.078 2.99105 232.43C2.04712 231.783 1.38037 230.804 1.12239 229.689C0.86441 228.574 1.03395 227.402 1.59761 226.406L20.5276 193.174C21.1227 192.122 22.111 191.35 23.2748 191.027C24.439 190.704 25.6835 190.856 26.7357 191.451L36.891 197.154L95.0776 229.742C96.0455 230.283 97.1283 230.588 98.2367 230.629C99.3451 230.671 100.448 230.449 101.454 229.981C102.459 229.513 103.34 228.813 104.022 227.939C104.705 227.065 105.17 226.041 105.38 224.952L112.272 188.811" stroke="black" stroke-miterlimit="10"/>
<path d="M178.451 50.1352V68.0588V68.9265V69.1464C180.296 71.835 181.225 75.6641 179.465 78.5156C177.107 82.3407 171.901 81.7052 168.601 79.5666C167.63 78.9384 166.703 78.2443 165.827 77.4891C162.891 74.9374 160.989 71.3987 160.483 67.5415C160.211 65.6314 160.265 63.6895 160.642 61.7978C161.676 56.608 163.46 53.6262 166.715 49.5201C168.752 46.9537 171.929 40.7864 167.685 38.66C162.711 36.1792 166.157 28.9201 171.889 32.5496C176.337 35.3726 182.728 31.8531 185.368 28.0687C188.448 23.6571 188.558 16.9724 183.739 13.7339C181.111 11.9619 177.763 11.5342 174.622 11.8764C165.053 12.9274 158.242 20.4064 155.517 29.303C154.368 33.0792 153.073 36.8187 151.558 40.4849C150.311 43.4912 149.443 47.1452 146.669 49.1983C141.374 53.1455 133.74 51.0802 127.764 50.347C115.323 48.8194 105.29 54.3309 98.4344 64.6492C92.8006 73.1426 98.7643 85.3877 89.3422 92.0846C86.4907 94.101 83.2319 95.3231 80.1156 96.8873C75.6673 99.1481 72.0744 102.362 70.7668 107.312C68.1271 117.284 72.8036 129.565 81.0932 135.59C84.8939 138.352 89.3422 140.002 93.9616 140.906" stroke="black" stroke-miterlimit="10"/>
<path d="M203.01 82.9639C203.034 82.7358 203.042 82.5158 203.055 82.2999C203.262 78.3608 203.238 74.2791 201.955 70.4866C201.167 68.0564 199.693 65.9055 197.71 64.2948C195.958 62.9058 193.893 62.0055 191.824 61.1989C189.754 60.3924 187.701 59.6917 185.799 58.6C184.189 57.725 182.784 56.5152 181.681 55.052C181.294 54.5265 181.052 53.9081 180.981 53.2592C180.909 52.6107 181.01 51.9544 181.273 51.3572" stroke="black" stroke-miterlimit="10"/>
<path d="M174.594 46.0942C176.036 48.1554 177.991 50.3796 180.456 51.1821C183.645 52.2208 185.792 49.5119 186.937 46.8763C187.621 45.308 188.094 43.6378 188.648 42.0166C188.827 41.4829 188.937 41.2263 189.548 41.2019C190.159 41.1774 190.802 41.2996 191.43 41.2996C191.474 41.2984 191.518 41.2854 191.556 41.2621C191.594 41.2389 191.625 41.2059 191.646 41.1664C191.667 41.1269 191.677 41.0829 191.676 41.0381C191.675 40.9937 191.661 40.9501 191.638 40.9126C190.794 39.6295 189.536 36.1303 188.9 34.729C188.016 32.7859 188.656 31.5272 188.061 29.4863C187.656 28.2333 187.169 27.0084 186.603 25.8201" stroke="black" stroke-miterlimit="10"/>
<path d="M187.543 22.0521C187.543 22.0521 196.24 25.3883 191.747 35.4133C191.47 36.0203 190.79 37.2871 190.468 37.8574" stroke="black" stroke-miterlimit="10"/>
<path d="M187.064 46.5871C186.367 46.6828 185.66 46.5211 185.074 46.1329C184.489 45.7443 184.065 45.1556 183.882 44.477" stroke="black" stroke-miterlimit="10"/>
<path d="M188.533 33.1607C186.732 31.6942 184.757 33.568 183.551 34.9286" stroke="black" stroke-miterlimit="10"/>
<path d="M160.495 67.5455C154.456 67.9276 148.492 69.0874 142.751 70.9958C133.381 74.0673 126.929 78.0309 119.275 84.243C115.956 86.9576 112.809 89.8759 109.853 92.9808C92.5725 111.067 88.4867 128.038 93.9657 140.926C98.4181 151.428 108.683 157.942 119.201 161.262C126.082 163.429 133.251 164.362 140.445 164.569C149.02 164.814 157.668 164.488 166.108 162.858C169.664 162.174 173.762 161.612 175.885 158.308C178.007 155.005 178.186 150.548 176.61 147.008C175.131 143.713 171.139 140.169 167.53 142.756C167.13 143.044 166.8 143.42 166.567 143.855C166.334 144.29 166.202 144.772 166.182 145.265" stroke="black" stroke-miterlimit="10"/>
<path d="M153.972 89.339C154.42 102.847 142.974 110.379 142.974 110.379C139.177 113.454 135.487 116.758 132.383 120.542C130.399 122.958 128.557 125.663 127.645 128.69C126.963 130.754 126.974 132.983 127.678 135.04C128.455 136.942 129.74 138.594 131.393 139.814C134.48 142.23 138.236 143.481 141.959 144.564C146.062 145.738 150.241 146.628 154.465 147.228C156.909 147.579 157.94 146.821 159.056 144.707C160.066 142.792 160.893 140.576 162.763 139.326C165.354 137.586 168.833 137.183 171.831 137.9C176.454 139 177.636 142.666 173.868 143.407" stroke="black" stroke-miterlimit="10"/>
<path d="M151.151 180.982L80.9025 164.007L64.1846 233.192L132.486 250.171L134.677 249.165L151.151 180.982Z" fill="#D8E6EB"/>
<path d="M118.736 171.254C122.068 147.929 129.291 142.161 133.992 141.008L133.682 140.837C119.49 135.313 109.648 162.643 107.558 169.034L118.736 171.254Z" fill="#D8E6EB"/>
<path d="M118.541 173.103C121.873 149.778 129.291 142.144 133.992 141.008L133.682 140.837C119.49 135.313 109.241 163.958 107.143 170.346L118.541 173.103Z" fill="#D8E6EB"/>
<path d="M133.682 140.837C117.632 134.596 107.143 170.346 107.143 170.346L118.549 173.103C125.177 137.256 139.397 143.774 139.397 143.774C138.896 143.623 133.682 140.837 133.682 140.837Z" stroke="black" stroke-miterlimit="10"/>
<path d="M80.1192 167.304L64.1863 233.215L119.607 246.612L135.54 180.702L80.1192 167.304Z" fill="#4339B8"/>
<path d="M80.9653 163.814L64.1879 233.216L122.543 247.323L139.32 177.921L80.9653 163.814Z" fill="#D8E6EB"/>
<path d="M81.239 169.094L66.7897 228.867C66.3799 230.561 67.4219 232.267 69.1165 232.677L118.4 244.591C120.095 245.001 121.801 243.959 122.211 242.264L136.66 182.492C137.07 180.797 136.028 179.091 134.334 178.681L85.0494 166.768C83.3548 166.358 81.6488 167.399 81.239 169.094Z" fill="#4339B8"/>
<path d="M80.9123 164.031L64.1879 233.216L122.543 247.322L139.268 178.138L80.9123 164.031Z" stroke="black" stroke-miterlimit="10"/>
<path d="M139.513 178.193L122.788 247.377L134.437 250.193L151.162 181.009L139.513 178.193Z" fill="#D8E6EB"/>
<path d="M139.513 178.193L122.788 247.377L134.437 250.193L151.162 181.009L139.513 178.193Z" stroke="black" stroke-miterlimit="10"/>
<path d="M134.432 250.171L130.68 240.521L122.781 247.356" stroke="black" stroke-miterlimit="10"/>
<path d="M145.329 179.576L130.681 240.521" stroke="black" stroke-miterlimit="10"/>
<path d="M273.834 67.3459C273.614 67.3826 273.426 67.4193 273.186 67.4681C270.982 67.8527 268.893 68.7301 267.076 70.0345C265.084 71.5743 263.275 74.2506 262.395 76.5522C261.065 80.0473 259.602 83.4854 258.008 86.8664C255.601 92.0785 252.739 97.0674 249.453 101.776C246.044 106.566 241.95 111.422 236.793 114.404C236.146 114.795 235.464 115.126 234.756 115.393C233.888 115.76 221.68 101.714 220.336 100.15C214.946 93.8811 209.374 87.673 203.056 82.3081C201.455 80.9394 199.797 79.6196 198.094 78.3853C192.208 74.0657 185.538 70.9319 178.456 69.1587" stroke="black" stroke-miterlimit="10"/>
<path d="M295.797 66.8327C295.821 66.8388 295.846 66.8388 295.871 66.8327C301.517 67.4926 299.305 73.5785 295.333 73.383C290.946 73.163 286.571 73.383 282.196 73.4563C280.99 73.4168 279.789 73.6376 278.676 74.104C276.477 75.155 276.269 77.5013 275.939 79.6277C275.499 82.414 274.998 85.2003 274.407 87.9622C273.258 93.4371 271.841 98.8386 270.216 104.191C269.165 107.662 268.004 111.116 266.782 114.534C263.213 124.604 258.716 135.285 251.151 143.049C246.972 147.351 241.497 150.528 235.326 150.064C226.637 149.416 218.278 145.053 210.909 140.091C210.877 140.07 210.849 140.046 210.823 140.018C208.072 138.167 205.436 136.151 202.929 133.981C202.929 133.981 192.773 124.938 189.669 118.314" stroke="black" stroke-miterlimit="10"/>
<path d="M311.852 61.3577V61.928C311.852 65.8631 308.683 66.5393 305.945 66.6045L252.96 67.8265C250.639 67.8876 248.687 65.8549 248.638 63.3171V63.2112C248.638 60.7223 250.463 58.6529 252.757 58.5959C252.757 58.5959 282.396 57.7608 305.35 57.1294C305.786 58.5185 306.854 59.5939 308.177 60.433C309.284 61.0982 310.563 61.4201 311.852 61.3577Z" stroke="black" stroke-miterlimit="10"/>
<path d="M340 5.29353C340 5.94163 339.846 6.58118 339.552 7.15922L315.872 55.7363C315.594 56.2976 315.198 56.7922 314.711 57.1857C314.223 57.5796 313.657 57.8631 313.049 58.0175C312.071 58.2652 311.036 58.158 310.129 57.7161C309.403 57.3592 308.793 56.8064 308.365 56.1204C307.938 55.4341 307.712 54.6422 307.713 53.834C307.717 53.1875 307.864 52.5504 308.145 51.9683L331.837 3.38711C332.267 2.51944 332.978 1.82286 333.854 1.40981C334.731 0.997155 335.72 0.892467 336.663 1.11244C337.606 1.33282 338.448 1.86523 339.05 2.62332C339.653 3.38141 339.982 4.32077 339.984 5.28946L340 5.29353Z" stroke="black" stroke-miterlimit="10"/>
</svg>
