<svg width="341" height="285" viewBox="0 0 341 285" fill="none" xmlns="http://www.w3.org/2000/svg">
<path d="M296.68 230.123C295.941 228.172 295.202 226.22 294.479 224.269L294.398 224.069C286.188 202.26 277.965 180.463 269.732 158.677C267.146 151.808 264.433 144.726 259.302 139.481C248.611 128.566 229.745 129.605 217.549 138.915L217.457 138.992L217.376 139.046C215.988 140.121 214.692 141.309 213.5 142.598C208.98 147.467 205.666 153.329 203.825 159.713C200.673 170.589 200.542 182.362 202.863 193.873C203.321 196.205 203.902 198.51 204.56 200.8C207.983 212.559 213.762 223.499 221.544 232.955C215.425 234.272 209.281 235.529 203.113 236.727C169.889 243.167 136.555 248.994 103.111 254.207C82.9901 257.359 61.6727 260.75 41.4983 263.444L33.801 264.395C32.9582 264.501 32.1019 264.417 31.2952 264.151C30.4882 263.885 29.7508 263.442 29.1365 262.855L16.5439 250.467C14.9966 248.996 12.9613 248.147 10.8275 248.084C8.6938 248.02 6.6114 248.745 4.97882 250.12L2 253.199C10.8864 262.601 16.6863 269.429 25.5727 278.831C26.8658 280.201 28.1975 281.598 29.9255 282.348C31.6535 283.099 33.6009 283.118 35.4867 283.118L46.5091 283.118C55.8305 283.118 65.1568 283.118 74.4885 283.118L263.428 283.157C271.168 283.157 279.169 283.107 286.266 280.009C289.69 278.495 292.771 276.302 295.322 273.562" fill="white"/>
<path d="M296.68 230.123C295.941 228.172 295.202 226.22 294.479 224.269L294.398 224.069C286.188 202.26 277.965 180.463 269.732 158.677C267.146 151.808 264.433 144.726 259.302 139.481C248.611 128.566 229.745 129.605 217.549 138.915L217.457 138.992L217.376 139.046C215.988 140.121 214.692 141.309 213.5 142.598C208.98 147.467 205.666 153.329 203.825 159.713C200.673 170.589 200.542 182.362 202.863 193.873C203.321 196.205 203.902 198.51 204.56 200.8C207.983 212.559 213.762 223.499 221.544 232.955C215.425 234.272 209.281 235.529 203.113 236.727C169.889 243.167 136.555 248.994 103.111 254.207C82.9901 257.359 61.6727 260.75 41.4983 263.444L33.801 264.395C32.9582 264.501 32.1019 264.417 31.2952 264.151C30.4882 263.885 29.7508 263.442 29.1365 262.855L16.5439 250.467C14.9966 248.996 12.9613 248.147 10.8275 248.084C8.6938 248.02 6.6114 248.745 4.97882 250.12L2 253.199C10.8864 262.601 16.6863 269.429 25.5727 278.831C26.8658 280.201 28.1975 281.598 29.9255 282.348C31.6535 283.099 33.6009 283.118 35.4867 283.118L46.5091 283.118C55.8305 283.118 65.1568 283.118 74.4885 283.118L263.428 283.157C271.168 283.157 279.169 283.107 286.266 280.009C289.69 278.495 292.771 276.302 295.322 273.562" stroke="black" stroke-width="2" stroke-miterlimit="10"/>
<path d="M232.916 180.868L298.77 278.669C299.688 280.032 300.927 281.149 302.378 281.921C303.829 282.694 305.447 283.098 307.091 283.099L335.767 283.099C336.889 283.099 337.966 282.653 338.76 281.859C339.554 281.065 340 279.989 340 278.866C340 277.743 339.554 276.666 338.76 275.872C337.966 275.078 336.889 274.632 335.767 274.632L322.243 274.632C320.058 274.632 317.924 273.98 316.113 272.759C314.302 271.538 312.897 269.803 312.078 267.778L276.633 177.818" fill="white"/>
<path d="M187.118 11.0025C187.118 11.0025 235.226 -15.6375 260.276 18.034C285.327 51.7054 247.868 78.003 280.778 97.8156C313.687 117.628 288.271 155.649 318.109 168.28C347.948 180.911 339.088 235.488 304.116 248.081" stroke="#CCDDE2" stroke-width="2" stroke-miterlimit="10"/>
<path d="M49.7924 209.429C49.7 209.814 49.6231 210.168 49.5576 210.549C49.3999 211.342 49.2536 212.146 49.1497 212.962C46.8405 229.984 54.3145 247.057 64.7827 260.123" stroke="#CCDDE2" stroke-width="2" stroke-miterlimit="10"/>
<path d="M217.049 14.5201L70.7981 14.5201C52.8647 14.5201 38.3274 29.0579 38.3274 46.9908L38.3274 184.675C38.3274 202.608 52.8647 217.146 70.7981 217.146L217.049 217.146C234.982 217.146 249.52 202.608 249.52 184.675L249.52 46.9908C249.52 29.0579 234.982 14.5201 217.049 14.5201Z" fill="#4339B8"/>
<path d="M214.897 11.5605L69.8698 11.5605C50.7465 11.5605 35.2439 27.0627 35.2439 46.1865L35.2439 182.519C35.2439 201.643 50.7465 217.145 69.8698 217.145L214.897 217.145C234.02 217.145 249.523 201.643 249.523 182.519L249.523 46.1865C249.523 27.0627 234.02 11.5605 214.897 11.5605Z" stroke="black" stroke-width="2" stroke-miterlimit="10"/>
<path d="M212.896 18.5034L74.9503 18.5034C57.017 18.5034 42.4796 33.0408 42.4796 50.9741L42.4796 180.688C42.4796 198.621 57.017 213.158 74.9503 213.158L212.896 213.158C230.829 213.158 245.367 198.621 245.367 180.688L245.367 50.9741C245.367 33.0408 230.829 18.5034 212.896 18.5034Z" fill="#4339B8"/>
<path d="M221.398 28.7216L178.917 28.7216C173.144 28.7216 168.452 33.7632 168.452 39.971L168.452 153.455C168.452 159.674 173.144 164.72 178.917 164.72L221.398 164.72C227.17 164.72 231.881 159.674 231.881 153.455L231.881 39.971C231.881 33.7632 227.186 28.7216 221.398 28.7216ZM226.936 150.295C226.936 155.483 223.033 159.674 218.207 159.674L182.115 159.674C177.289 159.674 173.386 155.483 173.386 150.295L173.386 43.1577C173.386 37.9736 177.289 33.7786 182.115 33.7786L218.199 33.7786C223.026 33.7786 226.928 37.9736 226.928 43.1577L226.936 150.295Z" fill="#D7E8F0"/>
<path d="M125.637 171.974L63.3777 171.078C62.7081 171.066 62.0696 170.79 61.6035 170.308C61.1374 169.827 60.8815 169.181 60.8915 168.511C60.8915 168.28 60.925 168.05 60.9916 167.829C61.1509 167.302 61.4773 166.841 61.9218 166.515C62.3659 166.19 62.904 166.017 63.4547 166.024L125.714 166.94C125.241 167.66 124.975 168.496 124.944 169.357C124.919 170.278 125.159 171.187 125.637 171.974Z" fill="#D7E8F0"/>
<path d="M140.727 170.343C140.568 170.87 140.243 171.333 139.8 171.66C139.356 171.988 138.819 172.163 138.268 172.159L133.773 172.094C134.254 171.342 134.516 170.47 134.53 169.578C134.543 168.685 134.308 167.807 133.85 167.041L138.345 167.106C139.015 167.118 139.653 167.395 140.119 167.876C140.586 168.357 140.843 169.003 140.835 169.673C140.832 169.9 140.796 170.126 140.727 170.343Z" fill="#D7E8F0"/>
<path d="M140.581 180.368C140.422 180.895 140.098 181.356 139.655 181.681C139.212 182.007 138.675 182.179 138.125 182.173L76.2512 181.269C76.9382 180.456 77.3288 179.434 77.3596 178.371C77.3889 177.633 77.2426 176.9 76.9324 176.231L138.195 177.116C138.864 177.129 139.501 177.406 139.966 177.887C140.432 178.368 140.689 179.013 140.681 179.683C140.681 179.915 140.647 180.146 140.581 180.368Z" fill="#D7E8F0"/>
<path d="M68.8123 181.157L63.2357 181.084C62.5668 181.075 61.9287 180.8 61.4619 180.321C60.9951 179.842 60.7376 179.197 60.7457 178.528C60.7468 178.294 60.7818 178.06 60.8496 177.836C61.0054 177.309 61.3295 176.848 61.7721 176.523C62.2151 176.199 62.7523 176.028 63.3011 176.038L68.2697 176.119C67.9834 176.722 67.8209 177.377 67.7925 178.043C67.7497 179.17 68.1115 180.274 68.8123 181.157Z" fill="#D7E8F0"/>
<path d="M121.229 192.06L63.4616 191.221C62.7935 191.205 62.1581 190.927 61.6932 190.447C61.2279 189.966 60.9704 189.323 60.9754 188.654C60.9785 188.427 61.0147 188.201 61.0832 187.984C61.2417 187.456 61.5669 186.994 62.0103 186.666C62.4537 186.339 62.9913 186.164 63.5424 186.168L121.222 187.018C120.75 187.775 120.5 188.648 120.5 189.539C120.5 190.431 120.75 191.304 121.222 192.06L121.229 192.06Z" fill="#D7E8F0"/>
<path d="M140.824 190.509C140.665 191.038 140.339 191.5 139.893 191.825C139.448 192.15 138.908 192.321 138.357 192.31L129.301 192.172L121.219 192.06C120.747 191.304 120.497 190.431 120.497 189.539C120.497 188.648 120.747 187.775 121.219 187.019L129.439 187.142L138.43 187.269C139.098 187.28 139.734 187.555 140.2 188.034C140.666 188.513 140.923 189.156 140.916 189.824C140.921 190.056 140.889 190.287 140.824 190.509Z" fill="#D7E8F0"/>
<path d="M133.773 172.094C133.207 172.979 132.366 173.654 131.379 174.014C130.393 174.375 129.315 174.4 128.312 174.086C127.309 173.773 126.437 173.138 125.831 172.28C125.226 171.422 124.919 170.388 124.959 169.338C124.98 168.709 125.125 168.091 125.386 167.518C125.647 166.946 126.018 166.43 126.478 166.001C126.938 165.573 127.478 165.238 128.067 165.018C128.657 164.799 129.284 164.697 129.912 164.72C130.541 164.74 131.16 164.884 131.733 165.145C132.306 165.405 132.822 165.776 133.251 166.236C133.68 166.696 134.014 167.237 134.234 167.827C134.453 168.417 134.554 169.044 134.531 169.673C134.498 170.533 134.236 171.369 133.773 172.094Z" fill="white"/>
<g opacity="0.72">
<path opacity="0.72" d="M131.968 169.153C131.862 169.729 131.595 170.263 131.198 170.693C131.005 170.911 130.793 171.111 130.563 171.289C130.44 171.378 129.793 171.905 129.654 171.839C128.792 171.405 127.699 170.3 127.565 169.234C127.544 169.067 127.544 168.897 127.565 168.73C127.613 168.438 127.766 168.173 127.994 167.985C128.223 167.796 128.512 167.697 128.808 167.706C128.999 167.715 129.186 167.768 129.353 167.861C129.521 167.954 129.665 168.084 129.774 168.241C129.942 168.031 130.175 167.881 130.436 167.815C130.697 167.748 130.973 167.769 131.221 167.873C131.47 167.977 131.677 168.16 131.813 168.393C131.948 168.626 132.004 168.897 131.971 169.165L131.968 169.153Z" fill="white"/>
</g>
<path d="M76.2515 181.269C75.7947 181.816 75.2208 182.254 74.5727 182.552C73.9246 182.849 73.2184 182.998 72.5053 182.987C71.7925 182.976 71.0909 182.806 70.452 182.49C69.8128 182.173 69.2528 181.718 68.8121 181.157C68.1086 180.272 67.7468 179.162 67.7923 178.032C67.8207 177.365 67.9831 176.711 68.2695 176.108C68.6751 175.275 69.3132 174.577 70.1068 174.099C70.9004 173.621 71.8156 173.383 72.7416 173.414C73.6337 173.441 74.5 173.719 75.2409 174.217C75.9817 174.715 76.5671 175.412 76.9289 176.227C77.2394 176.896 77.3857 177.63 77.3561 178.367C77.3276 179.431 76.9381 180.455 76.2515 181.269Z" fill="white"/>
<g opacity="0.72">
<path opacity="0.72" d="M74.8038 177.855C74.6987 178.431 74.4317 178.965 74.0341 179.394C73.842 179.614 73.6281 179.814 73.3952 179.991C73.2721 180.079 72.6255 180.611 72.4908 180.541C71.6249 180.106 70.5357 179.002 70.401 177.936C70.3798 177.768 70.3798 177.599 70.401 177.432C70.4499 177.14 70.6027 176.875 70.8313 176.687C71.0595 176.499 71.3481 176.4 71.6441 176.408C71.8354 176.417 72.022 176.47 72.1895 176.563C72.3569 176.655 72.5008 176.785 72.6101 176.943C72.7787 176.732 73.0115 176.582 73.2732 176.516C73.5349 176.449 73.8109 176.47 74.0599 176.575C74.3085 176.68 74.5159 176.863 74.651 177.097C74.7861 177.331 74.8411 177.602 74.8077 177.87L74.8038 177.855Z" fill="white"/>
</g>
<path d="M129.3 192.172C128.725 193.043 127.881 193.702 126.897 194.05C125.913 194.397 124.842 194.415 123.847 194.099C122.852 193.782 121.988 193.15 121.385 192.298C120.782 191.446 120.474 190.421 120.506 189.378C120.539 188.543 120.785 187.73 121.222 187.018C121.66 186.317 122.272 185.741 122.998 185.345C123.724 184.95 124.54 184.749 125.367 184.761C126.194 184.774 127.003 185 127.717 185.416C128.432 185.834 129.026 186.428 129.443 187.142C129.901 187.921 130.125 188.817 130.089 189.72C130.056 190.594 129.783 191.442 129.3 192.172Z" fill="white"/>
<g opacity="0.72">
<path opacity="0.72" d="M127.527 189.201C127.423 189.777 127.156 190.311 126.757 190.74C126.564 190.96 126.35 191.159 126.118 191.337C125.995 191.429 125.348 191.956 125.214 191.887C124.348 191.452 123.259 190.348 123.124 189.282C123.101 189.114 123.101 188.945 123.124 188.777C123.162 188.536 123.272 188.313 123.439 188.135C123.606 187.958 123.823 187.835 124.061 187.783C124.299 187.73 124.547 187.751 124.774 187.842C125 187.933 125.193 188.09 125.329 188.292C125.498 188.083 125.731 187.935 125.992 187.869C126.253 187.803 126.528 187.824 126.776 187.928C127.024 188.032 127.232 188.214 127.368 188.446C127.504 188.678 127.561 188.949 127.531 189.216L127.527 189.201Z" fill="white"/>
</g>
<path d="M60.4146 40.6561L60.5224 55.4155C60.5489 57.9887 61.5696 60.4518 63.3707 62.2895C65.1719 64.1272 67.6142 65.1971 70.1862 65.2756L84.8109 65.5296C86.0652 65.5458 87.3102 65.3102 88.4721 64.8369C89.634 64.3639 90.6889 63.6623 91.5752 62.7744C92.4616 61.8865 93.1609 60.8297 93.6316 59.667C94.1026 58.504 94.3355 57.2586 94.317 56.0043L94.2054 41.2488C94.1827 38.6729 93.1636 36.2059 91.362 34.3648C89.5605 32.524 87.1163 31.4517 84.5415 31.3732L69.9168 31.1154C68.6614 31.0996 67.4156 31.3363 66.253 31.8104C65.0907 32.285 64.035 32.9877 63.149 33.8775C62.2631 34.7669 61.5646 35.8253 61.095 36.9895C60.6251 38.1541 60.3938 39.4006 60.4146 40.6561Z" fill="white"/>
<path d="M62.6622 44.3584L62.7392 55.0421C62.7631 57.2778 63.6502 59.4176 65.2154 61.0144C66.7802 62.6108 68.902 63.5407 71.1369 63.6092L83.8373 63.8285C84.928 63.8447 86.0106 63.6415 87.0212 63.2316C88.0319 62.8217 88.9501 62.2133 89.7214 61.442C90.4927 60.6707 91.1011 59.7525 91.511 58.7418C91.9213 57.7312 92.1241 56.6482 92.1079 55.5579L92.1079 54.8343C90.326 51.1897 86.8546 45.7362 83.1522 48.996C77.8142 53.6874 75.3703 50.1159 72.2607 45.513C69.6398 41.6605 65.6911 38.8472 62.6622 44.3584Z" fill="#4339B8"/>
<path d="M86.5336 42.8863C88.145 41.8157 88.5602 39.6077 87.4615 37.954C86.3631 36.3006 84.1663 35.828 82.5552 36.8983C80.9442 37.9686 80.5289 40.1769 81.6273 41.8303C82.7261 43.484 84.9225 43.9566 86.5336 42.8863Z" fill="#4339B8"/>
<path d="M141.47 60.5187C139.186 60.5168 136.957 61.2218 135.091 62.5377C133.224 63.8531 131.811 65.7147 131.046 67.8661C130.28 70.0174 130.199 72.3531 130.815 74.5522C131.431 76.7513 132.712 78.7057 134.484 80.1466L109.337 125.252C109.159 125.225 108.979 125.206 108.799 125.198C108.337 125.205 107.878 125.277 107.436 125.41L88.5935 102.011C89.4271 100.849 89.8963 99.4647 89.9413 98.0353C89.9863 96.6055 89.6049 95.195 88.846 93.9827C88.0866 92.7708 86.9844 91.8117 85.6786 91.2279C84.3731 90.644 82.923 90.462 81.5136 90.7045C80.1042 90.9473 78.7984 91.6035 77.7631 92.5903C76.7279 93.5771 76.0093 94.8494 75.6995 96.2457C75.3893 97.642 75.5017 99.0991 76.022 100.431C76.5424 101.763 77.4472 102.911 78.6218 103.727L65.4249 141.289C64.2703 141.357 63.175 141.822 62.3248 142.606C61.4747 143.39 60.9224 144.445 60.7619 145.59C60.6014 146.735 60.8427 147.901 61.4447 148.888C62.0462 149.875 62.9714 150.624 64.0629 151.006C65.1543 151.389 66.3443 151.381 67.4308 150.985C68.5172 150.588 69.4328 149.828 70.022 148.833C70.6113 147.838 70.8376 146.67 70.6624 145.527C70.4873 144.384 69.9216 143.336 69.0618 142.563L82.2625 105.001C82.4242 105.001 82.582 105.024 82.7436 105.024C83.7269 105.024 84.6999 104.824 85.6031 104.435L104.431 127.831C104.02 128.586 103.813 129.435 103.831 130.295C103.848 131.154 104.09 131.994 104.53 132.732C104.971 133.47 105.596 134.081 106.345 134.504C107.093 134.926 107.939 135.147 108.799 135.143C109.732 135.148 110.649 134.889 111.442 134.396C112.235 133.902 112.872 133.195 113.281 132.355C113.69 131.515 113.853 130.577 113.752 129.649C113.65 128.72 113.289 127.839 112.709 127.107L137.856 82.017C139.374 82.5427 140.988 82.7309 142.587 82.5689C144.185 82.4065 145.73 81.8977 147.111 81.0779C148.493 80.2582 149.68 79.1467 150.588 77.8216C151.496 76.4962 152.105 74.9891 152.371 73.4042C152.638 71.8197 152.555 70.1964 152.13 68.6469C151.705 67.0975 150.947 65.6593 149.91 64.4327C148.872 63.2062 147.579 62.2205 146.121 61.5447C144.663 60.8685 143.076 60.5187 141.47 60.5187Z" fill="white"/>
<path d="M312.09 186.903C312.063 186.784 312.036 186.668 311.997 186.549C310.754 182.102 308.194 178.135 304.654 175.169C304.612 175.146 304.562 175.103 304.519 175.076C304.192 174.842 303.85 174.614 303.507 174.391C303.045 174.103 302.568 173.825 302.095 173.548C302.055 173.521 302.011 173.499 301.964 173.483C300.132 172.629 298.388 171.598 296.757 170.404L296.676 170.35C294.475 168.888 292.485 167.187 291.111 164.827C291.08 164.778 291.054 164.725 291.034 164.67C291.007 164.67 291.007 164.627 290.995 164.616C289.729 162.691 288.963 160.582 289.121 158.393L289.121 158.327C288.736 154.756 289.121 150.996 288.975 147.37C288.975 147.147 288.975 146.924 288.936 146.697C288.898 146.47 288.898 146.196 288.883 145.973C288.896 145.9 288.896 145.824 288.883 145.75C288.83 145.033 288.738 144.321 288.605 143.614C287.355 136.837 283.002 130.798 277.675 126.542C277.555 126.439 277.426 126.346 277.291 126.264C271.318 121.885 264.779 120.184 260.495 119.525C260.456 119.52 260.416 119.52 260.376 119.525C258.767 119.406 257.239 119.433 255.827 119.114C255.8 119.114 255.773 119.114 255.761 119.114C254.181 118.807 252.771 117.924 251.805 116.635C251.44 116.167 251.114 115.668 250.831 115.146C250.792 115.117 250.764 115.074 250.751 115.026C249.641 113.3 248.91 111.36 248.603 109.331C248.565 109.134 248.511 108.946 248.484 108.749C247.56 104.362 247.533 99.5897 247.51 95.6449C247.152 89.5679 244.45 81.736 239.755 76.1594C239.755 76.1594 239.755 76.1324 239.728 76.1324C238.367 74.7708 236.834 73.5924 235.168 72.6264C230.954 70.2672 226.118 69.2596 221.313 69.7399C221.313 69.7399 221.313 69.7399 221.286 69.7399C221.278 69.7376 221.27 69.7376 221.263 69.7399C218.307 69.9897 215.443 70.8903 212.876 72.3762C211.933 72.9185 211.041 73.5443 210.209 74.2466C205.206 78.5417 202.339 85.2537 201.546 91.8733C201.481 92.3851 201.442 92.8893 201.415 93.4127C201.402 93.4739 201.402 93.5366 201.415 93.5974C200.791 94.448 200.422 95.4586 200.349 96.5108C200.278 97.6785 200.56 98.8404 201.157 99.8464C201.754 100.852 202.639 101.656 203.697 102.153L203.697 102.257C203.697 102.599 203.697 102.957 203.697 103.3C203.775 105.642 204.285 107.949 205.202 110.104C206.742 113.741 209.486 117.894 214.139 118.552C214.966 118.67 215.798 118.746 216.633 118.779L218.834 128.193L220.72 136.352C228.944 131.672 239.124 130.259 247.81 132.992L247.837 132.992C251.904 134.224 255.598 136.453 258.582 139.477C268.235 147.347 279.099 184.806 279.75 187.126C279.753 187.154 279.762 187.181 279.777 187.203C279.777 187.203 279.777 187.203 279.777 187.23C279.777 187.257 279.777 187.269 279.804 187.296C279.832 187.405 279.872 187.511 279.923 187.611C279.961 187.731 280.004 187.85 280.054 187.969L280.331 188.681C282.255 193.65 288.467 209.848 289.849 213.847C291.5 218.569 292.789 218.939 292.789 218.939C292.86 218.923 292.927 218.896 292.989 218.858L293.251 218.754C297.419 217.066 301.285 214.71 304.696 211.78C304.723 211.78 304.723 211.78 304.723 211.754C307.882 208.543 310.173 204.582 311.382 200.242C312.715 195.923 312.958 191.34 312.09 186.903Z" fill="white"/>
<path d="M205.749 90.3453C205.749 90.3453 206.754 73.5192 222.468 69.5628C238.181 65.6064 247.549 83.8719 248.253 95.5832C248.957 107.295 248.253 115.38 256.512 119.06C256.512 119.06 280.374 118.771 289.156 140.7C289.156 140.7 290.345 151.438 289.861 158.35C289.376 165.262 298 171.324 302.699 173.46C307.399 175.596 315.569 184.274 313.349 198.449C311.128 212.623 293.528 218.927 293.528 218.927C293.528 218.927 292.231 218.542 290.584 213.828C288.937 209.113 280.505 187.242 280.505 187.242C280.505 187.242 269.27 147.601 259.299 139.488C253.811 135.016 247.926 132.992 244.051 130.636C239.967 128.154 238.004 125.418 236.642 123.663C233.983 120.241 229.268 115.073 232.678 102.88C236.088 90.6878 232.651 96.834 229.441 95.1175C229.441 95.1175 225.462 88.9598 219.458 93.3164C213.454 97.673 214.917 87.0662 214.917 87.0662L212.28 90.6147C212.28 90.6147 208.147 91.4344 205.749 90.3453Z" fill="#4339B8"/>
<path d="M166.498 113.275C166.668 113.037 166.883 112.787 167.064 112.537C167.245 112.286 167.472 112.048 167.684 111.809C168.372 111.068 169.117 110.381 169.912 109.754C170.162 109.554 170.412 109.369 170.662 109.188L166.498 113.275Z" fill="#3FBDF1"/>
<path d="M47.7753 283.072L35.4829 283.072C33.5971 283.072 31.6612 283.072 29.9216 282.302C28.1821 281.533 26.8428 280.155 25.5689 278.785C16.6863 269.409 10.8864 262.582 2 253.18L4.97882 250.101C6.6114 248.726 8.6938 248 10.8275 248.064C12.9613 248.128 14.9966 248.977 16.5439 250.447L29.1327 262.813L47.7753 283.072Z" fill="#4339B8"/>
<path d="M221.512 233.252C215.398 234.574 209.255 235.83 203.081 237.024C195.803 238.435 188.521 239.815 181.237 241.165L174.444 232.855L163.283 244.432C143.255 248.024 123.188 251.39 103.083 254.531L103.175 254.438L155.736 201.401C159.328 197.773 163.853 195.208 168.81 193.989C173.768 192.77 178.966 192.944 183.831 194.493L204.532 201.097C207.953 212.856 213.73 223.796 221.512 233.252Z" fill="white"/>
<path d="M206.146 160.021C203.548 169.015 202.94 178.586 204.01 188.142C204.267 190.593 204.651 193.03 205.165 195.455C205.638 197.879 206.246 200.265 206.931 202.652C210.039 213.321 215.015 223.355 221.629 232.286C221.367 232.34 221.117 232.405 220.89 232.455C213.428 223.181 207.87 212.524 204.537 201.097C203.876 198.788 203.298 196.478 202.836 194.169C202.375 191.86 201.99 189.478 201.728 187.119C200.7 177.901 201.293 168.672 203.799 160.009C205.639 153.627 208.953 147.766 213.474 142.898C214.602 141.674 215.827 140.544 217.138 139.519L217.203 139.469L217.415 139.311L217.507 139.23C218.744 138.291 220.044 137.437 221.398 136.675C224.356 134.99 227.539 133.733 230.85 132.942C228.615 133.699 226.456 134.667 224.404 135.832C222.998 136.626 221.649 137.515 220.367 138.495L220.274 138.572L220.063 138.73L220.04 138.73L219.974 138.78C218.615 139.84 217.345 141.008 216.176 142.275C211.493 147.326 208.059 153.404 206.146 160.021Z" fill="#2E2E2E"/>
<path d="M248.161 203.529C248.161 203.529 258.868 217.134 267.789 233.379C257.136 229.069 235.538 230.685 226.879 231.586C225.729 231.641 224.583 231.769 223.449 231.97C223.378 231.972 223.307 231.981 223.238 231.997C223.212 232 223.186 232 223.161 231.997C222.607 232.105 222.091 232.197 221.621 232.301C215.008 223.37 210.031 213.337 206.924 202.667C206.239 200.281 205.63 197.895 205.157 195.47C204.684 193.046 204.272 190.602 204.002 188.158C202.933 178.602 203.541 169.03 206.138 160.036C208.055 153.418 211.496 147.34 216.183 142.29C217.352 141.024 218.623 139.855 219.982 138.796L220.047 138.746L220.07 138.746L220.282 138.588L220.374 138.511C221.657 137.531 223.006 136.641 224.412 135.848C226.464 134.682 228.622 133.714 230.858 132.957C236.739 131.533 242.92 131.576 248.496 133.342L248.523 133.342C251.806 134.966 255.632 136.864 259.268 139.831C264.399 145.077 267.112 152.146 269.698 159.028C273.27 168.521 276.851 178.004 280.443 187.477C280.445 187.505 280.455 187.533 280.47 187.557C280.47 187.557 280.47 187.557 280.47 187.584C280.47 187.611 280.47 187.623 280.497 187.65C280.525 187.759 280.565 187.865 280.617 187.965C280.653 188.087 280.697 188.207 280.748 188.323C256.994 183.359 248.161 203.529 248.161 203.529Z" fill="#2E2E2E"/>
<path d="M217.138 139.519C215.826 140.539 214.6 141.664 213.47 142.883C208.95 147.75 205.636 153.611 203.795 159.994C201.29 168.657 200.696 177.886 201.724 187.103C201.42 187.273 201.105 187.419 200.789 187.577C194.17 190.806 186.853 193.18 179.418 193.126C175.34 193.082 171.32 192.158 167.632 190.417C163.943 188.677 160.674 186.162 158.046 183.043C153.894 178.124 151.269 172.178 149.329 166.109C147.286 159.701 145.731 153.266 143.198 147.032C141.578 143.06 139.958 138.603 136.463 135.809C134.67 134.385 132.426 133.885 130.648 132.461C128.759 130.943 127.391 128.874 126.734 126.542C126.444 125.537 126.258 124.505 126.18 123.463C125.849 119.349 126.949 115.05 128.3 111.239L121.408 106.598C119.533 105.332 118.713 102.592 119.822 100.625C120.139 100.063 120.575 99.5766 121.098 99.1995C121.622 98.8219 122.221 98.5625 122.855 98.439C123.443 98.327 124.048 98.3359 124.633 98.4648C125.218 98.5937 125.77 98.8404 126.257 99.1895L140.497 109.419C140.497 109.419 141.593 105.875 144.953 106.968C148.094 107.995 159.274 112.386 158.889 125.941C158.836 128.007 159.381 130.044 160.459 131.806L173.829 153.928C174.777 155.493 176.042 156.842 177.543 157.888C179.044 158.934 180.748 159.653 182.544 160C184.34 160.347 186.189 160.313 187.971 159.901C189.754 159.489 191.43 158.707 192.892 157.607L216.295 140.154L217.138 139.519Z" fill="white"/>
<path d="M221.518 145.731L205.738 184.756L201.678 186.653L194.912 189.805C200.331 167.641 192.896 157.307 192.896 157.307L212.489 142.683C212.778 142.79 213.066 142.883 213.37 142.987C217.404 144.318 221.518 145.731 221.518 145.731Z" fill="#2E2E2E"/>
<path d="M229.78 231.043C222.911 232.744 228.449 231.455 221.541 232.944" stroke="black" stroke-width="2" stroke-miterlimit="10"/>
<path d="M296.68 230.123C295.941 228.172 295.202 226.22 294.479 224.269L294.398 224.069C286.188 202.26 277.965 180.463 269.732 158.677C267.146 151.808 264.433 144.726 259.302 139.481C248.611 128.566 229.745 129.605 217.549 138.915L217.457 138.992L217.376 139.046C215.988 140.121 214.692 141.309 213.5 142.598C208.98 147.467 205.666 153.329 203.825 159.713C200.673 170.589 200.542 182.362 202.863 193.873C203.321 196.205 203.902 198.51 204.56 200.8C207.983 212.559 213.762 223.499 221.544 232.955C215.425 234.272 209.281 235.529 203.113 236.727C169.889 243.167 136.555 248.994 103.111 254.207C82.9901 257.359 61.6727 260.75 41.4983 263.444L33.801 264.395C32.9582 264.501 32.1019 264.417 31.2952 264.151C30.4882 263.885 29.7508 263.442 29.1365 262.855L16.5439 250.467C14.9966 248.996 12.9613 248.147 10.8275 248.084C8.6938 248.02 6.6114 248.745 4.97882 250.12L2 253.199C10.8864 262.601 16.6863 269.429 25.5727 278.831C26.8658 280.201 28.1975 281.598 29.9255 282.348C31.6535 283.099 33.6009 283.118 35.4867 283.118L46.5091 283.118C55.8305 283.118 65.1568 283.118 74.4885 283.118L263.428 283.157C271.168 283.157 279.169 283.107 286.266 280.009C289.69 278.495 292.771 276.302 295.322 273.562" stroke="black" stroke-width="2" stroke-miterlimit="10"/>
<path d="M232.916 180.868L298.77 278.669C299.688 280.032 300.927 281.149 302.378 281.921C303.829 282.694 305.447 283.098 307.091 283.099L335.767 283.099C336.889 283.099 337.966 282.653 338.76 281.859C339.554 281.065 340 279.989 340 278.865C340 277.743 339.554 276.666 338.76 275.872C337.966 275.078 336.889 274.632 335.767 274.632L322.243 274.632C320.058 274.632 317.924 273.98 316.113 272.759C314.302 271.538 312.897 269.803 312.078 267.778L293.724 222.426" stroke="black" stroke-width="2" stroke-miterlimit="10"/>
<path d="M103.107 254.208L103.199 254.115L155.764 201.097C159.356 197.469 163.879 194.902 168.836 193.68C173.793 192.457 178.992 192.627 183.859 194.169L204.556 200.777" stroke="black" stroke-width="2" stroke-miterlimit="10"/>
<path d="M296.862 230.188L296.677 230.123" stroke="black" stroke-width="2" stroke-miterlimit="10"/>
<path d="M181.341 240.945L174.475 232.548L163.195 244.224" stroke="black" stroke-width="2" stroke-miterlimit="10"/>
<path d="M260.264 140.722L260.264 140.708" stroke="black" stroke-width="2" stroke-miterlimit="10"/>
<path d="M201.742 186.799C201.742 186.799 201.704 186.799 201.688 186.826C201.4 186.984 201.107 187.126 200.807 187.272C198.887 188.218 196.919 189.063 194.911 189.805C189.954 191.664 184.72 192.884 179.436 192.822C175.357 192.777 171.337 191.853 167.648 190.112C163.959 188.372 160.689 185.857 158.061 182.739C153.908 177.82 151.287 171.874 149.347 165.805C147.304 159.397 145.749 152.962 143.217 146.727C141.596 142.759 139.972 138.303 136.482 135.505C134.688 134.081 132.444 133.581 130.666 132.157C128.778 130.638 127.408 128.569 126.748 126.237C126.461 125.233 126.277 124.201 126.198 123.159C125.867 119.044 126.968 114.749 128.319 110.939L121.422 106.298C119.552 105.032 118.728 102.291 119.84 100.325C120.158 99.7628 120.593 99.2764 121.117 98.8988C121.64 98.5216 122.239 98.2623 122.873 98.1387C123.461 98.0267 124.066 98.0356 124.651 98.1645C125.236 98.2934 125.789 98.5401 126.275 98.8892L140.515 109.119C140.515 109.119 141.612 105.574 144.972 106.667C148.108 107.695 159.288 112.086 158.907 125.641C158.854 127.706 159.4 129.743 160.478 131.506L173.844 153.632C174.792 155.194 176.056 156.541 177.556 157.585C179.056 158.629 180.758 159.347 182.552 159.693C184.347 160.039 186.194 160.006 187.974 159.595C189.755 159.184 191.43 158.405 192.891 157.307L212.484 142.682L216.294 139.85L217.218 139.165L217.429 139.007L217.522 138.93" stroke="black" stroke-width="2" stroke-miterlimit="10"/>
<path d="M140.55 109.084C140.55 109.084 138.329 114.492 145.988 118.094" stroke="black" stroke-width="2" stroke-miterlimit="10"/>
<path d="M127.099 115.007C127.099 115.007 126.329 121.55 135.023 123.994C138.102 124.86 140.596 121.3 138.721 118.714L138.629 118.594" stroke="black" stroke-width="2" stroke-miterlimit="10"/>
<path d="M126.179 123.085C126.179 123.085 129.081 128.77 133.876 128.139C138.11 127.581 136.57 123.443 136.57 123.443" stroke="black" stroke-width="2" stroke-miterlimit="10"/>
<path d="M128.326 110.905L133.379 114.311" stroke="black" stroke-width="2" stroke-miterlimit="10"/>
<path d="M292.57 219.258C302.307 216.226 309.192 210.149 312.125 200.246C314.934 190.755 313.106 179.964 304.231 174.399C299.809 171.655 294.587 169.511 291.842 164.812C288.098 158.385 290.622 150.545 289.329 143.591C287.986 136.371 283.129 129.974 277.306 125.687C272.99 122.526 267.972 120.458 262.682 119.66C258.775 119.071 255.219 120.045 252.548 116.581C248.315 111.112 248.284 102.176 248.249 95.5909C248.226 90.5339 247.033 85.4999 244.431 81.1625L244.374 81.0663C242.31 77.5698 239.397 74.6499 235.907 72.5763C229.364 68.7892 220.185 68.439 213.585 72.3338C212.643 72.8965 211.752 73.5403 210.922 74.2581C204.822 79.4807 201.904 88.3055 202.047 96.1644" stroke="black" stroke-width="2" stroke-miterlimit="10"/>
<path d="M214.443 86.5583C214.104 88.8675 212.695 91.0073 210.209 91.65C207.384 92.3659 205.887 95.1138 205.094 97.8771C203.966 101.929 204.257 106.245 205.922 110.108C207.461 113.741 210.213 117.898 214.862 118.575C223.371 119.787 227.601 116.2 227.601 116.2" stroke="black" stroke-width="2" stroke-miterlimit="10"/>
<path d="M221.533 98.9239C222.341 98.9239 222.995 98.2693 222.995 97.4615C222.995 96.6537 222.341 95.999 221.533 95.999C220.725 95.999 220.07 96.6537 220.07 97.4615C220.07 98.2693 220.725 98.9239 221.533 98.9239Z" fill="black"/>
<path d="M208.685 97.9579C209.493 97.9579 210.147 97.3033 210.147 96.4954C210.147 95.6876 209.493 95.033 208.685 95.033C207.877 95.033 207.222 95.6876 207.222 96.4954C207.222 97.3033 207.877 97.9579 208.685 97.9579Z" fill="black"/>
<path d="M214.443 86.5583C214.117 87.9481 214.166 89.4002 214.586 90.7649C214.652 90.9873 214.737 91.2036 214.84 91.4114C215.852 93.7976 218.211 95.6949 222.391 95.4602C231.489 94.956 234.733 94.3633 233.994 98.5583C233.686 100.032 233.245 101.475 232.674 102.869C231.674 105.517 230.977 110.081 232.005 115.038L232.005 115.065C233.19 120.865 240.037 130.021 249.512 133.315" stroke="black" stroke-width="2" stroke-miterlimit="10"/>
<path d="M215.244 97.8156C215.244 97.8156 213.704 103.427 213.862 104.254C214.02 105.082 215.983 104.443 215.983 104.443" stroke="black" stroke-width="2" stroke-miterlimit="10"/>
<path d="M216.301 109.581C219.238 111.166 222.64 110.166 223.971 107.514" stroke="black" stroke-width="2" stroke-miterlimit="10"/>
<path d="M228.727 103.284C231.252 100.608 231.079 96.3423 228.338 93.7553C225.598 91.1683 221.328 91.2403 218.803 93.9154C216.277 96.591 216.452 100.857 219.192 103.444C221.932 106.031 226.201 105.959 228.727 103.284Z" stroke="black" stroke-width="2" stroke-miterlimit="10"/>
<path d="M211.686 101.722C214.212 99.0467 214.037 94.7805 211.297 92.1935C208.557 89.6065 204.288 89.6784 201.762 92.354C199.236 95.0295 199.41 99.2953 202.151 101.882C204.891 104.469 209.161 104.397 211.686 101.722Z" stroke="black" stroke-width="2" stroke-miterlimit="10"/>
<path d="M206.58 92.3544C206.722 92.3544 206.869 92.3544 207.015 92.3736C208.265 92.4922 209.42 93.091 210.237 94.0447C211.054 94.998 211.469 96.2311 211.395 97.4846C211.327 98.6365 210.818 99.7183 209.975 100.506C209.132 101.294 208.019 101.728 206.865 101.718C206.718 101.718 206.572 101.71 206.426 101.695C205.176 101.578 204.021 100.979 203.204 100.027C202.387 99.0737 201.972 97.841 202.046 96.5879C202.113 95.4348 202.622 94.3522 203.466 93.564C204.31 92.7758 205.425 92.3425 206.58 92.3544ZM206.58 91.3653C205.176 91.3584 203.823 91.8876 202.797 92.8447C201.771 93.8015 201.148 95.1142 201.057 96.5147C200.967 98.0257 201.467 99.5124 202.452 100.661C203.437 101.81 204.831 102.532 206.338 102.672C206.513 102.691 206.689 102.7 206.865 102.699C208.264 102.706 209.614 102.179 210.639 101.226C211.664 100.273 212.288 98.9655 212.384 97.5692C212.474 96.0583 211.974 94.5716 210.989 93.4228C210.003 92.2736 208.61 91.5527 207.104 91.4115C206.93 91.393 206.755 91.3842 206.58 91.3845L206.58 91.3653Z" fill="white"/>
<path d="M217.03 97.9772L213.454 97.65" stroke="black" stroke-width="2" stroke-miterlimit="10"/>
<path d="M223.618 93.7746C223.767 93.7749 223.916 93.7826 224.064 93.7977C225.35 93.922 226.539 94.5389 227.38 95.5199C228.222 96.5005 228.651 97.7686 228.579 99.0587C228.507 100.246 227.982 101.359 227.112 102.17C226.243 102.981 225.095 103.426 223.906 103.415C223.76 103.415 223.606 103.415 223.46 103.396C222.173 103.272 220.984 102.654 220.143 101.673C219.301 100.691 218.872 99.4224 218.946 98.1312C219.018 96.9447 219.543 95.8309 220.412 95.0204C221.281 94.2095 222.429 93.7638 223.618 93.7746ZM223.618 92.7855C222.18 92.7785 220.794 93.3208 219.742 94.3014C218.691 95.2821 218.054 96.6271 217.96 98.0619C217.865 99.611 218.376 101.136 219.385 102.315C220.394 103.494 221.822 104.234 223.368 104.377C223.547 104.396 223.726 104.405 223.906 104.404C225.344 104.412 226.731 103.869 227.782 102.889C228.833 101.908 229.471 100.563 229.564 99.128C229.66 97.5824 229.152 96.0595 228.146 94.8814C227.141 93.703 225.718 92.9614 224.176 92.8124C223.997 92.7939 223.817 92.7851 223.637 92.7855L223.618 92.7855Z" fill="white"/>
<path d="M210.98 101.056C213.147 98.7608 212.998 95.1012 210.646 92.8817C208.296 90.6626 204.633 90.7241 202.467 93.0195C200.3 95.3148 200.449 98.9744 202.8 101.194C205.151 103.413 208.813 103.351 210.98 101.056Z" fill="#4339B8"/>
<path d="M228.045 102.632C230.222 100.326 230.072 96.6489 227.711 94.4194C225.349 92.1903 221.67 92.2523 219.493 94.5584C217.316 96.8644 217.466 100.541 219.827 102.771C222.189 105 225.868 104.938 228.045 102.632Z" fill="#4339B8"/>
<path d="M221.536 136.81L219.542 128.201L217.379 118.921" stroke="black" stroke-width="2" stroke-miterlimit="10"/>
</svg>
