<svg width="123" height="123" viewBox="0 0 123 123" fill="none" xmlns="http://www.w3.org/2000/svg">
<g clip-path="url(#clip0_124_371)">
<path d="M57.85 3.60999C57.8242 3.12061 57.8983 2.63109 58.0679 2.17128C58.2374 1.71147 58.4988 1.29099 58.836 0.935462C59.1733 0.579934 59.5795 0.296803 60.0297 0.103321C60.48 -0.0901605 60.9649 -0.189941 61.455 -0.189941C61.9451 -0.189941 62.43 -0.0901605 62.8802 0.103321C63.3305 0.296803 63.7366 0.579934 64.0739 0.935462C64.4112 1.29099 64.6726 1.71147 64.8421 2.17128C65.0116 2.63109 65.0858 3.12061 65.06 3.60999V27.45C65.0113 28.3733 64.6103 29.2427 63.9396 29.879C63.2689 30.5153 62.3795 30.8701 61.455 30.8701C60.5304 30.8701 59.6411 30.5153 58.9704 29.879C58.2997 29.2427 57.8986 28.3733 57.85 27.45V3.60999ZM29.42 13.15C28.9413 12.3238 28.8104 11.3414 29.056 10.4187C29.3017 9.496 29.9038 8.70871 30.73 8.22999C31.5561 7.75128 32.5386 7.62035 33.4613 7.86603C34.384 8.1117 35.1713 8.71384 35.65 9.53999L47.57 30.19C47.8346 30.5992 48.0133 31.0579 48.0953 31.5383C48.1774 32.0186 48.1611 32.5106 48.0474 32.9845C47.9337 33.4584 47.7249 33.9042 47.4338 34.295C47.1427 34.6858 46.7753 35.0135 46.3538 35.2581C45.9324 35.5027 45.4656 35.6592 44.9819 35.7181C44.4981 35.777 44.0075 35.7371 43.5396 35.6007C43.0718 35.4644 42.6365 35.2345 42.2601 34.925C41.8837 34.6154 41.5741 34.2327 41.35 33.8L29.42 13.15ZM9.56999 35.62C8.77568 35.1301 8.20335 34.3501 7.97433 33.4454C7.7453 32.5407 7.87757 31.5824 8.3431 30.7736C8.80863 29.9647 9.57084 29.369 10.4682 29.1126C11.3655 28.8562 12.3274 28.9593 13.15 29.4L33.8 41.32C34.2236 41.547 34.5974 41.8567 34.8991 42.2309C35.2008 42.605 35.4243 43.0359 35.5564 43.498C35.6884 43.9602 35.7263 44.4441 35.6679 44.9212C35.6094 45.3982 35.4557 45.8587 35.216 46.2752C34.9762 46.6918 34.6553 47.056 34.2721 47.3462C33.889 47.6364 33.4515 47.8467 32.9856 47.9646C32.5196 48.0826 32.0348 48.1058 31.5597 48.0328C31.0846 47.9599 30.6291 47.7923 30.22 47.54L9.56999 35.62ZM3.60999 65C3.12061 65.0258 2.63109 64.9516 2.17128 64.7821C1.71147 64.6126 1.29099 64.3512 0.935462 64.0139C0.579934 63.6766 0.296803 63.2705 0.103321 62.8202C-0.0901605 62.37 -0.189941 61.8851 -0.189941 61.395C-0.189941 60.9049 -0.0901605 60.42 0.103321 59.9697C0.296803 59.5195 0.579934 59.1133 0.935462 58.776C1.29099 58.4388 1.71147 58.1774 2.17128 58.0079C2.63109 57.8383 3.12061 57.7642 3.60999 57.79H27.45C28.3733 57.8386 29.2427 58.2397 29.879 58.9104C30.5153 59.5811 30.8701 60.4704 30.8701 61.395C30.8701 62.3195 30.5153 63.2089 29.879 63.8796C29.2427 64.5503 28.3733 64.9513 27.45 65H3.60999ZM13.15 93.43C12.3238 93.9087 11.3414 94.0396 10.4187 93.794C9.496 93.5483 8.70871 92.9461 8.22999 92.12C7.75128 91.2938 7.62035 90.3114 7.86603 89.3887C8.1117 88.466 8.71384 87.6787 9.53999 87.2L30.19 75.31C30.5992 75.0454 31.0579 74.8667 31.5383 74.7846C32.0186 74.7026 32.5106 74.7189 32.9845 74.8326C33.4584 74.9463 33.9042 75.155 34.295 75.4462C34.6858 75.7373 35.0135 76.1047 35.2581 76.5261C35.5027 76.9476 35.6592 77.4144 35.7181 77.8981C35.777 78.3818 35.7371 78.8725 35.6007 79.3404C35.4644 79.8082 35.2345 80.2435 34.925 80.6199C34.6154 80.9963 34.2327 81.3059 33.8 81.53L13.15 93.46V93.43ZM35.62 113.28C35.1301 114.074 34.3501 114.647 33.4454 114.876C32.5407 115.105 31.5824 114.972 30.7736 114.507C29.9647 114.041 29.369 113.279 29.1126 112.382C28.8562 111.484 28.9593 110.523 29.4 109.7L41.32 89.08C41.547 88.6563 41.8567 88.2826 42.2309 87.9809C42.605 87.6792 43.0359 87.4557 43.498 87.3236C43.9602 87.1916 44.4441 87.1536 44.9212 87.2121C45.3982 87.2706 45.8587 87.4243 46.2752 87.664C46.6918 87.9038 47.056 88.2247 47.3462 88.6079C47.6364 88.991 47.8467 89.4285 47.9646 89.8944C48.0826 90.3603 48.1058 90.8452 48.0328 91.3203C47.9599 91.7953 47.7923 92.2509 47.54 92.66L35.62 113.31V113.28ZM65.03 119.28C65.0558 119.769 64.9817 120.259 64.8121 120.719C64.6426 121.179 64.3812 121.599 64.0439 121.955C63.7066 122.31 63.3005 122.593 62.8502 122.787C62.4 122.98 61.9151 123.08 61.425 123.08C60.9349 123.08 60.45 122.98 59.9997 122.787C59.5495 122.593 59.1433 122.31 58.806 121.955C58.4688 121.599 58.2074 121.179 58.0379 120.719C57.8683 120.259 57.7942 119.769 57.82 119.28V95.43C57.8686 94.5067 58.2697 93.6373 58.9404 93.001C59.6111 92.3647 60.5004 92.0099 61.425 92.0099C62.3495 92.0099 63.2389 92.3647 63.9096 93.001C64.5803 93.6373 64.9813 94.5067 65.03 95.43V119.27V119.28ZM93.46 109.74C93.9387 110.566 94.0696 111.549 93.824 112.471C93.5783 113.394 92.9761 114.181 92.15 114.66C91.3238 115.139 90.3414 115.27 89.4187 115.024C88.496 114.778 87.7087 114.176 87.23 113.35L75.31 92.69C74.8847 91.8687 74.7918 90.9153 75.0505 90.0274C75.3092 89.1394 75.8998 88.3851 76.6997 87.9209C77.4996 87.4566 78.4475 87.3181 79.3468 87.5339C80.2461 87.7497 81.0279 88.3033 81.53 89.08L93.46 109.73V109.74ZM113.31 87.27C114.104 87.7599 114.677 88.5398 114.906 89.4445C115.135 90.3492 115.002 91.3076 114.537 92.1164C114.071 92.9252 113.309 93.521 112.412 93.7774C111.515 94.0338 110.553 93.9307 109.73 93.49L89.08 81.56C88.6563 81.333 88.2826 81.0233 87.9809 80.6491C87.6792 80.275 87.4557 79.8441 87.3236 79.382C87.1916 78.9198 87.1536 78.4359 87.2121 77.9588C87.2706 77.4818 87.4243 77.0213 87.664 76.6048C87.9038 76.1882 88.2247 75.824 88.6079 75.5338C88.991 75.2436 89.4285 75.0333 89.8944 74.9154C90.3603 74.7974 90.8452 74.7742 91.3203 74.8472C91.7953 74.9201 92.2509 75.0877 92.66 75.34L113.31 87.26V87.27ZM119.31 57.86C119.799 57.8342 120.289 57.9083 120.749 58.0779C121.209 58.2474 121.629 58.5088 121.985 58.846C122.34 59.1833 122.623 59.5895 122.817 60.0397C123.01 60.49 123.11 60.9749 123.11 61.465C123.11 61.9551 123.01 62.44 122.817 62.8902C122.623 63.3405 122.34 63.7466 121.985 64.0839C121.629 64.4212 121.209 64.6826 120.749 64.8521C120.289 65.0217 119.799 65.0958 119.31 65.07H95.43C94.5067 65.0213 93.6373 64.6203 93.001 63.9496C92.3647 63.2789 92.0099 62.3895 92.0099 61.465C92.0099 60.5404 92.3647 59.6511 93.001 58.9804C93.6373 58.3097 94.5067 57.9086 95.43 57.86H119.31ZM109.77 29.43C110.179 29.193 110.631 29.0388 111.099 28.9764C111.568 28.9139 112.044 28.9444 112.501 29.066C112.958 29.1877 113.387 29.3981 113.762 29.6853C114.138 29.9726 114.453 30.3309 114.69 30.74C114.927 31.1491 115.081 31.6008 115.144 32.0695C115.206 32.5381 115.176 33.0144 115.054 33.4713C114.932 33.9282 114.722 34.3566 114.435 34.7321C114.147 35.1077 113.789 35.423 113.38 35.66L92.69 47.57C91.8687 47.9953 90.9153 48.0882 90.0274 47.8295C89.1394 47.5708 88.3851 46.9802 87.9209 46.1803C87.4566 45.3804 87.3181 44.4325 87.5339 43.5332C87.7497 42.6339 88.3033 41.8521 89.08 41.35L109.73 29.42L109.77 29.43ZM87.26 9.56999C87.487 9.14634 87.7967 8.77258 88.1709 8.47088C88.545 8.16917 88.9759 7.94567 89.438 7.81361C89.9002 7.68156 90.3841 7.64364 90.8612 7.70211C91.3382 7.76059 91.7987 7.91425 92.2152 8.15401C92.6318 8.39376 92.996 8.71472 93.2862 9.09785C93.5764 9.48098 93.7867 9.91849 93.9046 10.3844C94.0226 10.8503 94.0458 11.3352 93.9728 11.8103C93.8999 12.2853 93.7323 12.7409 93.48 13.15L81.56 33.8C81.333 34.2236 81.0233 34.5974 80.6491 34.8991C80.275 35.2008 79.8441 35.4243 79.382 35.5564C78.9198 35.6884 78.4359 35.7263 77.9588 35.6679C77.4818 35.6094 77.0213 35.4557 76.6048 35.216C76.1882 34.9762 75.824 34.6553 75.5338 34.2721C75.2436 33.889 75.0333 33.4515 74.9154 32.9856C74.7974 32.5196 74.7742 32.0348 74.8472 31.5597C74.9201 31.0846 75.0877 30.6291 75.34 30.22L87.26 9.56999Z" fill="#D8E6EB"/>
</g>
<defs>
<clipPath id="clip0_124_371">
<rect width="122.88" height="122.88" fill="white"/>
</clipPath>
</defs>
</svg>
